<?xml version="1.0" encoding="utf-8"?>
<svg version="1.1" xmlns:xlink="http://www.w3.org/1999/xlink" width="33px" height="33px" xmlns="http://www.w3.org/2000/svg">
  <defs>
    <pattern id="BGPattern" patternUnits="userSpaceOnUse" alignment="0 0" imageRepeat="None" />
    <mask fill="white" id="Clip22">
      <path d="M 6.917733089579525 27.89835666463786  C 7.172455819622181 27.643944004869137  7.29981718464351 27.34266585514303  7.29981718464351 26.994522215459526  C 7.29981718464351 26.64637857577602  7.172455819622181 26.34510042604991  6.917733089579525 26.090687766281196  C 6.663010359536869 25.836275106512474  6.361365021328459 25.70906877662812  6.012797074954296 25.70906877662812  C 5.664229128580134 25.70906877662812  5.362583790371725 25.836275106512474  5.107861060329068 26.090687766281196  C 4.853138330286411 26.34510042604991  4.725776965265083 26.64637857577602  4.725776965265083 26.994522215459526  C 4.725776965265083 27.34266585514303  4.853138330286411 27.643944004869137  5.107861060329068 27.89835666463786  C 5.362583790371725 28.152769324406574  5.664229128580134 28.27997565429093  6.012797074954296 28.27997565429093  C 6.361365021328459 28.27997565429093  6.663010359536869 28.152769324406574  6.917733089579525 27.89835666463786  Z M 16.761425959780624 16.25897748021911  C 17.77361365021329 17.26993304930006  18.93662400975015 18.036518563603163  20.250457038391225 18.558734023128427  L 6.535648994515539 32.2568472306756  C 6.039609993906155 32.7522824102252  5.436319317489336 33  4.725776965265083 33  C 4.028641072516759 33  3.418647166361975 32.7522824102252  2.895795246800731 32.2568472306756  L 0.7641681901279708 30.087644552647596  C 0.25472273004265683 29.60559951308582  0 29.003043213633596  0 28.27997565429093  C 0 27.570298234936093  0.25472273004265683 26.961046865489955  0.7641681901279708 26.452221545952526  L 14.458866544789762 12.774193548387096  C 14.981718464351006 14.086427267194155  15.74923826934796 15.24802191113816  16.761425959780624 16.25897748021911  Z M 32.8290676416819 9.319537431527694  C 32.94302254722731 9.453438831405961  33.00000000000001 9.620815581253805  33 9.821667681071212  C 33.00000000000001 10.34388314059647  32.845825716026816 11.053560559951308  32.537477148080434 11.95069993913573  C 31.90737355271176 13.744978697504562  30.804692260816577 15.201156421180764  29.22943327239488 16.319233110164333  C 27.654174283973187 17.437309799147897  25.921389396709323 17.996348143639683  24.03107861060329 17.996348143639683  C 21.550883607556372 17.996348143639683  19.429311395490554 17.115946439440048  17.66636197440585 15.355143031040779  C 15.903412553321143 13.594339622641506  15.021937842778794 11.475349969567862  15.021937842778794 8.998174071819843  C 15.021937842778794 6.520998174071818  15.903412553321143 4.402008520998173  17.66636197440585 2.6412051125989047  C 19.429311395490554 0.8804017041996324  21.550883607556372 0  24.03107861060329 0  C 24.808653260207194 0  25.6230956733699 0.11046865489957558  26.474405850091408 0.3314059646987231  C 27.32571602681292 0.5523432744978706  28.04631322364412 0.8636640292148516  28.636197440585008 1.2653682288496664  C 28.850700792199877 1.412659768715761  28.95795246800731 1.6001217285453397  28.95795246800731 1.827754108338406  C 28.95795246800731 2.055386488131465  28.850700792199877 2.2428484479610438  28.636197440585008 2.390139987827146  L 22.744058500914075 5.784540474741326  L 22.744058500914075 10.283627510651248  L 26.62522851919561 12.432744978697505  C 26.692260816575264 12.392574558734024  27.22181596587447 12.067863664029213  28.213893967093234 11.45861229458308  C 29.205971968312006 10.849360925136942  30.114259597806218 10.307060255629944  30.938756855575868 9.83171028606208  C 31.76325411334552 9.356360316494216  32.23583180987203 9.118685331710285  32.356489945155396 9.118685331710285  C 32.55758683729433 9.118685331710285  32.715112736136504 9.185636031649421  32.8290676416819 9.319537431527694  Z " fill-rule="evenodd" />
    </mask>
  </defs>
  <g transform="matrix(1 0 0 1 -505 -2534 )">
    <path d="M 6.917733089579525 27.89835666463786  C 7.172455819622181 27.643944004869137  7.29981718464351 27.34266585514303  7.29981718464351 26.994522215459526  C 7.29981718464351 26.64637857577602  7.172455819622181 26.34510042604991  6.917733089579525 26.090687766281196  C 6.663010359536869 25.836275106512474  6.361365021328459 25.70906877662812  6.012797074954296 25.70906877662812  C 5.664229128580134 25.70906877662812  5.362583790371725 25.836275106512474  5.107861060329068 26.090687766281196  C 4.853138330286411 26.34510042604991  4.725776965265083 26.64637857577602  4.725776965265083 26.994522215459526  C 4.725776965265083 27.34266585514303  4.853138330286411 27.643944004869137  5.107861060329068 27.89835666463786  C 5.362583790371725 28.152769324406574  5.664229128580134 28.27997565429093  6.012797074954296 28.27997565429093  C 6.361365021328459 28.27997565429093  6.663010359536869 28.152769324406574  6.917733089579525 27.89835666463786  Z M 16.761425959780624 16.25897748021911  C 17.77361365021329 17.26993304930006  18.93662400975015 18.036518563603163  20.250457038391225 18.558734023128427  L 6.535648994515539 32.2568472306756  C 6.039609993906155 32.7522824102252  5.436319317489336 33  4.725776965265083 33  C 4.028641072516759 33  3.418647166361975 32.7522824102252  2.895795246800731 32.2568472306756  L 0.7641681901279708 30.087644552647596  C 0.25472273004265683 29.60559951308582  0 29.003043213633596  0 28.27997565429093  C 0 27.570298234936093  0.25472273004265683 26.961046865489955  0.7641681901279708 26.452221545952526  L 14.458866544789762 12.774193548387096  C 14.981718464351006 14.086427267194155  15.74923826934796 15.24802191113816  16.761425959780624 16.25897748021911  Z M 32.8290676416819 9.319537431527694  C 32.94302254722731 9.453438831405961  33.00000000000001 9.620815581253805  33 9.821667681071212  C 33.00000000000001 10.34388314059647  32.845825716026816 11.053560559951308  32.537477148080434 11.95069993913573  C 31.90737355271176 13.744978697504562  30.804692260816577 15.201156421180764  29.22943327239488 16.319233110164333  C 27.654174283973187 17.437309799147897  25.921389396709323 17.996348143639683  24.03107861060329 17.996348143639683  C 21.550883607556372 17.996348143639683  19.429311395490554 17.115946439440048  17.66636197440585 15.355143031040779  C 15.903412553321143 13.594339622641506  15.021937842778794 11.475349969567862  15.021937842778794 8.998174071819843  C 15.021937842778794 6.520998174071818  15.903412553321143 4.402008520998173  17.66636197440585 2.6412051125989047  C 19.429311395490554 0.8804017041996324  21.550883607556372 0  24.03107861060329 0  C 24.808653260207194 0  25.6230956733699 0.11046865489957558  26.474405850091408 0.3314059646987231  C 27.32571602681292 0.5523432744978706  28.04631322364412 0.8636640292148516  28.636197440585008 1.2653682288496664  C 28.850700792199877 1.412659768715761  28.95795246800731 1.6001217285453397  28.95795246800731 1.827754108338406  C 28.95795246800731 2.055386488131465  28.850700792199877 2.2428484479610438  28.636197440585008 2.390139987827146  L 22.744058500914075 5.784540474741326  L 22.744058500914075 10.283627510651248  L 26.62522851919561 12.432744978697505  C 26.692260816575264 12.392574558734024  27.22181596587447 12.067863664029213  28.213893967093234 11.45861229458308  C 29.205971968312006 10.849360925136942  30.114259597806218 10.307060255629944  30.938756855575868 9.83171028606208  C 31.76325411334552 9.356360316494216  32.23583180987203 9.118685331710285  32.356489945155396 9.118685331710285  C 32.55758683729433 9.118685331710285  32.715112736136504 9.185636031649421  32.8290676416819 9.319537431527694  Z " fill-rule="nonzero" fill="rgba(46, 44, 47, 1)" stroke="none" transform="matrix(1 0 0 1 505 2534 )" class="fill" />
    <path d="M 6.917733089579525 27.89835666463786  C 7.172455819622181 27.643944004869137  7.29981718464351 27.34266585514303  7.29981718464351 26.994522215459526  C 7.29981718464351 26.64637857577602  7.172455819622181 26.34510042604991  6.917733089579525 26.090687766281196  C 6.663010359536869 25.836275106512474  6.361365021328459 25.70906877662812  6.012797074954296 25.70906877662812  C 5.664229128580134 25.70906877662812  5.362583790371725 25.836275106512474  5.107861060329068 26.090687766281196  C 4.853138330286411 26.34510042604991  4.725776965265083 26.64637857577602  4.725776965265083 26.994522215459526  C 4.725776965265083 27.34266585514303  4.853138330286411 27.643944004869137  5.107861060329068 27.89835666463786  C 5.362583790371725 28.152769324406574  5.664229128580134 28.27997565429093  6.012797074954296 28.27997565429093  C 6.361365021328459 28.27997565429093  6.663010359536869 28.152769324406574  6.917733089579525 27.89835666463786  Z " stroke-width="0" stroke-dasharray="0" stroke="rgba(255, 255, 255, 0)" fill="none" transform="matrix(1 0 0 1 505 2534 )" class="stroke" mask="url(#Clip22)" />
    <path d="M 16.761425959780624 16.25897748021911  C 17.77361365021329 17.26993304930006  18.93662400975015 18.036518563603163  20.250457038391225 18.558734023128427  L 6.535648994515539 32.2568472306756  C 6.039609993906155 32.7522824102252  5.436319317489336 33  4.725776965265083 33  C 4.028641072516759 33  3.418647166361975 32.7522824102252  2.895795246800731 32.2568472306756  L 0.7641681901279708 30.087644552647596  C 0.25472273004265683 29.60559951308582  0 29.003043213633596  0 28.27997565429093  C 0 27.570298234936093  0.25472273004265683 26.961046865489955  0.7641681901279708 26.452221545952526  L 14.458866544789762 12.774193548387096  C 14.981718464351006 14.086427267194155  15.74923826934796 15.24802191113816  16.761425959780624 16.25897748021911  Z " stroke-width="0" stroke-dasharray="0" stroke="rgba(255, 255, 255, 0)" fill="none" transform="matrix(1 0 0 1 505 2534 )" class="stroke" mask="url(#Clip22)" />
    <path d="M 32.8290676416819 9.319537431527694  C 32.94302254722731 9.453438831405961  33.00000000000001 9.620815581253805  33 9.821667681071212  C 33.00000000000001 10.34388314059647  32.845825716026816 11.053560559951308  32.537477148080434 11.95069993913573  C 31.90737355271176 13.744978697504562  30.804692260816577 15.201156421180764  29.22943327239488 16.319233110164333  C 27.654174283973187 17.437309799147897  25.921389396709323 17.996348143639683  24.03107861060329 17.996348143639683  C 21.550883607556372 17.996348143639683  19.429311395490554 17.115946439440048  17.66636197440585 15.355143031040779  C 15.903412553321143 13.594339622641506  15.021937842778794 11.475349969567862  15.021937842778794 8.998174071819843  C 15.021937842778794 6.520998174071818  15.903412553321143 4.402008520998173  17.66636197440585 2.6412051125989047  C 19.429311395490554 0.8804017041996324  21.550883607556372 0  24.03107861060329 0  C 24.808653260207194 0  25.6230956733699 0.11046865489957558  26.474405850091408 0.3314059646987231  C 27.32571602681292 0.5523432744978706  28.04631322364412 0.8636640292148516  28.636197440585008 1.2653682288496664  C 28.850700792199877 1.412659768715761  28.95795246800731 1.6001217285453397  28.95795246800731 1.827754108338406  C 28.95795246800731 2.055386488131465  28.850700792199877 2.2428484479610438  28.636197440585008 2.390139987827146  L 22.744058500914075 5.784540474741326  L 22.744058500914075 10.283627510651248  L 26.62522851919561 12.432744978697505  C 26.692260816575264 12.392574558734024  27.22181596587447 12.067863664029213  28.213893967093234 11.45861229458308  C 29.205971968312006 10.849360925136942  30.114259597806218 10.307060255629944  30.938756855575868 9.83171028606208  C 31.76325411334552 9.356360316494216  32.23583180987203 9.118685331710285  32.356489945155396 9.118685331710285  C 32.55758683729433 9.118685331710285  32.715112736136504 9.185636031649421  32.8290676416819 9.319537431527694  Z " stroke-width="0" stroke-dasharray="0" stroke="rgba(255, 255, 255, 0)" fill="none" transform="matrix(1 0 0 1 505 2534 )" class="stroke" mask="url(#Clip22)" />
  </g>
</svg>