<?xml version="1.0" encoding="utf-8"?>
<svg version="1.1" xmlns:xlink="http://www.w3.org/1999/xlink" width="56px" height="39px" xmlns="http://www.w3.org/2000/svg">
  <defs>
    <pattern id="BGPattern" patternUnits="userSpaceOnUse" alignment="0 0" imageRepeat="None" />
    <mask fill="white" id="Clip4">
      <path d="M 23 11.11190476190476  L 23 26.68095238095238  L 37.33333333333333 18.942857142857143  L 23 11.11190476190476  Z M 8.42809364548495 0.5571428571428552  C 13.651430694908957 0.18571428571428505  20.175399479747302 0  28 0  C 31.496098104793756 0  34.87253808992939 0.046428571428571264  38.12931995540691 0.1392857142857138  C 41.386101820884434 0.23214285714285632  43.77406168710517 0.33015873015872754  45.29319955406912 0.4333333333333318  L 47.57190635451505 0.5571428571428552  C 47.592716462281686 0.5571428571428552  47.76960237829803 0.5726190476190456  48.1025641025641 0.6035714285714264  C 48.43552582683018 0.6345238095238116  48.674842066146425 0.6654761904761924  48.82051282051282 0.6964285714285733  C 48.966183574879224 0.7273809523809541  49.21070234113712 0.7738095238095254  49.55406911928651 0.8357142857142871  C 49.8974358974359 0.8976190476190488  50.19397993311036 0.9801587301587252  50.443701226309926 1.083333333333334  C 50.693422519509475 1.1865079365079336  50.984764028242296 1.3206349206349146  51.31772575250836 1.4857142857142849  C 51.65068747677444 1.6507936507936463  51.9732441471572 1.8519841269841262  52.28539576365663 2.0892857142857153  C 52.59754738015608 2.3265873015872964  52.89929394277221 2.5999999999999996  53.19063545150502 2.909523809523808  C 53.31549609810479 3.0333333333333314  53.47677443329618 3.224206349206345  53.67447045707915 3.4821428571428577  C 53.87216648086214 3.740079365079362  54.173913043478265 4.343650793650792  54.57971014492754 5.292857142857141  C 54.98550724637682 6.242063492063486  55.261241174284656 7.284126984126981  55.406911928651056 8.41904761904762  C 55.573392790784105 9.739682539682539  55.703455964325535 11.14801587301587  55.79710144927536 12.644047619047617  C 55.8907469342252 14.140079365079364  55.94797473058343 15.311111111111106  55.968784838350054 16.157142857142855  L 55.968784838350054 17.395238095238096  L 55.968784838350054 21.604761904761904  C 55.98959494611669 24.59682539682539  55.80230397621702 27.58888888888889  55.406911928651056 30.58095238095238  C 55.261241174284656 31.71587301587302  55.00111482720179 32.74246031746031  54.626532887402455 33.660714285714285  C 54.251950947603135 34.578968253968256  53.91898922333705 35.21349206349207  53.62764771460424 35.56428571428572  L 53.19063545150502 36.090476190476195  C 52.89929394277221 36.4  52.59754738015608 36.6734126984127  52.28539576365663 36.910714285714285  C 51.9732441471572 37.14801587301587  51.65068747677444 37.34404761904762  51.31772575250836 37.49880952380953  C 50.984764028242296 37.65357142857143  50.693422519509475 37.782539682539685  50.443701226309926 37.885714285714286  C 50.19397993311036 37.98888888888889  49.8974358974359 38.07142857142857  49.55406911928651 38.13333333333333  C 49.21070234113712 38.195238095238096  48.960981047937565 38.24166666666667  48.80490523968785 38.272619047619045  C 48.64882943143813 38.30357142857142  48.40951319212189 38.33452380952381  48.08695652173913 38.36547619047619  C 47.76439985135637 38.39642857142857  47.592716462281686 38.411904761904765  47.57190635451505 38.411904761904765  C 42.34856930509105 38.80396825396826  35.824600520252694 39  28 39  C 23.692307692307693 38.95873015873016  19.95169082125604 38.891666666666666  16.778149386845037 38.798809523809524  C 13.604607952434039 38.70595238095238  11.518394648829432 38.62857142857143  10.519509476031216 38.56666666666667  L 8.989966555183948 38.44285714285714  L 7.866220735785952 38.319047619047616  C 7.117056856187291 38.215873015873015  6.549981419546637 38.11269841269841  6.164994425863991 38.009523809523806  C 5.780007432181345 37.90634920634921  5.2493496841322935 37.68968253968254  4.573021181716833 37.359523809523814  C 3.896692679301375 37.02936507936508  3.3088071348940913 36.60634920634921  2.809364548494983 36.090476190476195  C 2.6845039018952064 35.96666666666667  2.523225566703828 35.77579365079365  2.3255295429208473 35.51785714285714  C 2.1278335191378672 35.25992063492064  1.826086956521739 34.656349206349205  1.4202898550724639 33.707142857142856  C 1.0144927536231885 32.757936507936506  0.7387588257153475 31.71587301587302  0.5930880713489409 30.58095238095238  C 0.4266072092159049 29.260317460317456  0.2965440356744705 27.851984126984124  0.2028985507246377 26.35595238095238  C 0.10925306577480491 24.859920634920627  0.05202526941657377 23.68888888888889  0.031215161649944256 22.842857142857138  L 0.031215161649944256 21.604761904761904  L 0.031215161649944256 17.395238095238096  C 0.01040505388331475 14.403174603174602  0.1976960237829803 11.411111111111108  0.5930880713489409 8.41904761904762  C 0.7387588257153475 7.284126984126981  0.9988851727982162 6.257539682539676  1.3734671125975473 5.339285714285713  C 1.7480490523968786 4.421031746031745  2.081010776662951 3.7865079365079333  2.3723522853957637 3.4357142857142864  L 2.809364548494983 2.909523809523808  C 3.100706057227797 2.5999999999999996  3.402452619843924 2.3265873015872964  3.7146042363433667 2.0892857142857153  C 4.026755852842809 1.8519841269841262  4.349312523225567 1.6507936507936463  4.682274247491639 1.4857142857142849  C 5.015235971757711 1.3206349206349146  5.306577480490524 1.1865079365079336  5.556298773690078 1.083333333333334  C 5.806020066889632 0.9801587301587252  6.102564102564102 0.8976190476190488  6.445930880713489 0.8357142857142871  C 6.7892976588628775 0.7738095238095254  7.033816425120775 0.7273809523809541  7.179487179487179 0.6964285714285733  C 7.325157933853586 0.6654761904761924  7.564474173169826 0.6345238095238116  7.897435897435898 0.6035714285714264  C 8.23039762170197 0.5726190476190456  8.407283537718323 0.5571428571428552  8.42809364548495 0.5571428571428552  Z " fill-rule="evenodd" />
    </mask>
  </defs>
  <g transform="matrix(1 0 0 1 -642 -2814 )">
    <path d="M 23 11.11190476190476  L 23 26.68095238095238  L 37.33333333333333 18.942857142857143  L 23 11.11190476190476  Z M 8.42809364548495 0.5571428571428552  C 13.651430694908957 0.18571428571428505  20.175399479747302 0  28 0  C 31.496098104793756 0  34.87253808992939 0.046428571428571264  38.12931995540691 0.1392857142857138  C 41.386101820884434 0.23214285714285632  43.77406168710517 0.33015873015872754  45.29319955406912 0.4333333333333318  L 47.57190635451505 0.5571428571428552  C 47.592716462281686 0.5571428571428552  47.76960237829803 0.5726190476190456  48.1025641025641 0.6035714285714264  C 48.43552582683018 0.6345238095238116  48.674842066146425 0.6654761904761924  48.82051282051282 0.6964285714285733  C 48.966183574879224 0.7273809523809541  49.21070234113712 0.7738095238095254  49.55406911928651 0.8357142857142871  C 49.8974358974359 0.8976190476190488  50.19397993311036 0.9801587301587252  50.443701226309926 1.083333333333334  C 50.693422519509475 1.1865079365079336  50.984764028242296 1.3206349206349146  51.31772575250836 1.4857142857142849  C 51.65068747677444 1.6507936507936463  51.9732441471572 1.8519841269841262  52.28539576365663 2.0892857142857153  C 52.59754738015608 2.3265873015872964  52.89929394277221 2.5999999999999996  53.19063545150502 2.909523809523808  C 53.31549609810479 3.0333333333333314  53.47677443329618 3.224206349206345  53.67447045707915 3.4821428571428577  C 53.87216648086214 3.740079365079362  54.173913043478265 4.343650793650792  54.57971014492754 5.292857142857141  C 54.98550724637682 6.242063492063486  55.261241174284656 7.284126984126981  55.406911928651056 8.41904761904762  C 55.573392790784105 9.739682539682539  55.703455964325535 11.14801587301587  55.79710144927536 12.644047619047617  C 55.8907469342252 14.140079365079364  55.94797473058343 15.311111111111106  55.968784838350054 16.157142857142855  L 55.968784838350054 17.395238095238096  L 55.968784838350054 21.604761904761904  C 55.98959494611669 24.59682539682539  55.80230397621702 27.58888888888889  55.406911928651056 30.58095238095238  C 55.261241174284656 31.71587301587302  55.00111482720179 32.74246031746031  54.626532887402455 33.660714285714285  C 54.251950947603135 34.578968253968256  53.91898922333705 35.21349206349207  53.62764771460424 35.56428571428572  L 53.19063545150502 36.090476190476195  C 52.89929394277221 36.4  52.59754738015608 36.6734126984127  52.28539576365663 36.910714285714285  C 51.9732441471572 37.14801587301587  51.65068747677444 37.34404761904762  51.31772575250836 37.49880952380953  C 50.984764028242296 37.65357142857143  50.693422519509475 37.782539682539685  50.443701226309926 37.885714285714286  C 50.19397993311036 37.98888888888889  49.8974358974359 38.07142857142857  49.55406911928651 38.13333333333333  C 49.21070234113712 38.195238095238096  48.960981047937565 38.24166666666667  48.80490523968785 38.272619047619045  C 48.64882943143813 38.30357142857142  48.40951319212189 38.33452380952381  48.08695652173913 38.36547619047619  C 47.76439985135637 38.39642857142857  47.592716462281686 38.411904761904765  47.57190635451505 38.411904761904765  C 42.34856930509105 38.80396825396826  35.824600520252694 39  28 39  C 23.692307692307693 38.95873015873016  19.95169082125604 38.891666666666666  16.778149386845037 38.798809523809524  C 13.604607952434039 38.70595238095238  11.518394648829432 38.62857142857143  10.519509476031216 38.56666666666667  L 8.989966555183948 38.44285714285714  L 7.866220735785952 38.319047619047616  C 7.117056856187291 38.215873015873015  6.549981419546637 38.11269841269841  6.164994425863991 38.009523809523806  C 5.780007432181345 37.90634920634921  5.2493496841322935 37.68968253968254  4.573021181716833 37.359523809523814  C 3.896692679301375 37.02936507936508  3.3088071348940913 36.60634920634921  2.809364548494983 36.090476190476195  C 2.6845039018952064 35.96666666666667  2.523225566703828 35.77579365079365  2.3255295429208473 35.51785714285714  C 2.1278335191378672 35.25992063492064  1.826086956521739 34.656349206349205  1.4202898550724639 33.707142857142856  C 1.0144927536231885 32.757936507936506  0.7387588257153475 31.71587301587302  0.5930880713489409 30.58095238095238  C 0.4266072092159049 29.260317460317456  0.2965440356744705 27.851984126984124  0.2028985507246377 26.35595238095238  C 0.10925306577480491 24.859920634920627  0.05202526941657377 23.68888888888889  0.031215161649944256 22.842857142857138  L 0.031215161649944256 21.604761904761904  L 0.031215161649944256 17.395238095238096  C 0.01040505388331475 14.403174603174602  0.1976960237829803 11.411111111111108  0.5930880713489409 8.41904761904762  C 0.7387588257153475 7.284126984126981  0.9988851727982162 6.257539682539676  1.3734671125975473 5.339285714285713  C 1.7480490523968786 4.421031746031745  2.081010776662951 3.7865079365079333  2.3723522853957637 3.4357142857142864  L 2.809364548494983 2.909523809523808  C 3.100706057227797 2.5999999999999996  3.402452619843924 2.3265873015872964  3.7146042363433667 2.0892857142857153  C 4.026755852842809 1.8519841269841262  4.349312523225567 1.6507936507936463  4.682274247491639 1.4857142857142849  C 5.015235971757711 1.3206349206349146  5.306577480490524 1.1865079365079336  5.556298773690078 1.083333333333334  C 5.806020066889632 0.9801587301587252  6.102564102564102 0.8976190476190488  6.445930880713489 0.8357142857142871  C 6.7892976588628775 0.7738095238095254  7.033816425120775 0.7273809523809541  7.179487179487179 0.6964285714285733  C 7.325157933853586 0.6654761904761924  7.564474173169826 0.6345238095238116  7.897435897435898 0.6035714285714264  C 8.23039762170197 0.5726190476190456  8.407283537718323 0.5571428571428552  8.42809364548495 0.5571428571428552  Z " fill-rule="nonzero" fill="rgba(255, 253, 249, 1)" stroke="none" transform="matrix(1 0 0 1 642 2814 )" class="fill" />
    <path d="M 23 11.11190476190476  L 23 26.68095238095238  L 37.33333333333333 18.942857142857143  L 23 11.11190476190476  Z " stroke-width="0" stroke-dasharray="0" stroke="rgba(255, 255, 255, 0)" fill="none" transform="matrix(1 0 0 1 642 2814 )" class="stroke" mask="url(#Clip4)" />
    <path d="M 8.42809364548495 0.5571428571428552  C 13.651430694908957 0.18571428571428505  20.175399479747302 0  28 0  C 31.496098104793756 0  34.87253808992939 0.046428571428571264  38.12931995540691 0.1392857142857138  C 41.386101820884434 0.23214285714285632  43.77406168710517 0.33015873015872754  45.29319955406912 0.4333333333333318  L 47.57190635451505 0.5571428571428552  C 47.592716462281686 0.5571428571428552  47.76960237829803 0.5726190476190456  48.1025641025641 0.6035714285714264  C 48.43552582683018 0.6345238095238116  48.674842066146425 0.6654761904761924  48.82051282051282 0.6964285714285733  C 48.966183574879224 0.7273809523809541  49.21070234113712 0.7738095238095254  49.55406911928651 0.8357142857142871  C 49.8974358974359 0.8976190476190488  50.19397993311036 0.9801587301587252  50.443701226309926 1.083333333333334  C 50.693422519509475 1.1865079365079336  50.984764028242296 1.3206349206349146  51.31772575250836 1.4857142857142849  C 51.65068747677444 1.6507936507936463  51.9732441471572 1.8519841269841262  52.28539576365663 2.0892857142857153  C 52.59754738015608 2.3265873015872964  52.89929394277221 2.5999999999999996  53.19063545150502 2.909523809523808  C 53.31549609810479 3.0333333333333314  53.47677443329618 3.224206349206345  53.67447045707915 3.4821428571428577  C 53.87216648086214 3.740079365079362  54.173913043478265 4.343650793650792  54.57971014492754 5.292857142857141  C 54.98550724637682 6.242063492063486  55.261241174284656 7.284126984126981  55.406911928651056 8.41904761904762  C 55.573392790784105 9.739682539682539  55.703455964325535 11.14801587301587  55.79710144927536 12.644047619047617  C 55.8907469342252 14.140079365079364  55.94797473058343 15.311111111111106  55.968784838350054 16.157142857142855  L 55.968784838350054 17.395238095238096  L 55.968784838350054 21.604761904761904  C 55.98959494611669 24.59682539682539  55.80230397621702 27.58888888888889  55.406911928651056 30.58095238095238  C 55.261241174284656 31.71587301587302  55.00111482720179 32.74246031746031  54.626532887402455 33.660714285714285  C 54.251950947603135 34.578968253968256  53.91898922333705 35.21349206349207  53.62764771460424 35.56428571428572  L 53.19063545150502 36.090476190476195  C 52.89929394277221 36.4  52.59754738015608 36.6734126984127  52.28539576365663 36.910714285714285  C 51.9732441471572 37.14801587301587  51.65068747677444 37.34404761904762  51.31772575250836 37.49880952380953  C 50.984764028242296 37.65357142857143  50.693422519509475 37.782539682539685  50.443701226309926 37.885714285714286  C 50.19397993311036 37.98888888888889  49.8974358974359 38.07142857142857  49.55406911928651 38.13333333333333  C 49.21070234113712 38.195238095238096  48.960981047937565 38.24166666666667  48.80490523968785 38.272619047619045  C 48.64882943143813 38.30357142857142  48.40951319212189 38.33452380952381  48.08695652173913 38.36547619047619  C 47.76439985135637 38.39642857142857  47.592716462281686 38.411904761904765  47.57190635451505 38.411904761904765  C 42.34856930509105 38.80396825396826  35.824600520252694 39  28 39  C 23.692307692307693 38.95873015873016  19.95169082125604 38.891666666666666  16.778149386845037 38.798809523809524  C 13.604607952434039 38.70595238095238  11.518394648829432 38.62857142857143  10.519509476031216 38.56666666666667  L 8.989966555183948 38.44285714285714  L 7.866220735785952 38.319047619047616  C 7.117056856187291 38.215873015873015  6.549981419546637 38.11269841269841  6.164994425863991 38.009523809523806  C 5.780007432181345 37.90634920634921  5.2493496841322935 37.68968253968254  4.573021181716833 37.359523809523814  C 3.896692679301375 37.02936507936508  3.3088071348940913 36.60634920634921  2.809364548494983 36.090476190476195  C 2.6845039018952064 35.96666666666667  2.523225566703828 35.77579365079365  2.3255295429208473 35.51785714285714  C 2.1278335191378672 35.25992063492064  1.826086956521739 34.656349206349205  1.4202898550724639 33.707142857142856  C 1.0144927536231885 32.757936507936506  0.7387588257153475 31.71587301587302  0.5930880713489409 30.58095238095238  C 0.4266072092159049 29.260317460317456  0.2965440356744705 27.851984126984124  0.2028985507246377 26.35595238095238  C 0.10925306577480491 24.859920634920627  0.05202526941657377 23.68888888888889  0.031215161649944256 22.842857142857138  L 0.031215161649944256 21.604761904761904  L 0.031215161649944256 17.395238095238096  C 0.01040505388331475 14.403174603174602  0.1976960237829803 11.411111111111108  0.5930880713489409 8.41904761904762  C 0.7387588257153475 7.284126984126981  0.9988851727982162 6.257539682539676  1.3734671125975473 5.339285714285713  C 1.7480490523968786 4.421031746031745  2.081010776662951 3.7865079365079333  2.3723522853957637 3.4357142857142864  L 2.809364548494983 2.909523809523808  C 3.100706057227797 2.5999999999999996  3.402452619843924 2.3265873015872964  3.7146042363433667 2.0892857142857153  C 4.026755852842809 1.8519841269841262  4.349312523225567 1.6507936507936463  4.682274247491639 1.4857142857142849  C 5.015235971757711 1.3206349206349146  5.306577480490524 1.1865079365079336  5.556298773690078 1.083333333333334  C 5.806020066889632 0.9801587301587252  6.102564102564102 0.8976190476190488  6.445930880713489 0.8357142857142871  C 6.7892976588628775 0.7738095238095254  7.033816425120775 0.7273809523809541  7.179487179487179 0.6964285714285733  C 7.325157933853586 0.6654761904761924  7.564474173169826 0.6345238095238116  7.897435897435898 0.6035714285714264  C 8.23039762170197 0.5726190476190456  8.407283537718323 0.5571428571428552  8.42809364548495 0.5571428571428552  Z " stroke-width="0" stroke-dasharray="0" stroke="rgba(255, 255, 255, 0)" fill="none" transform="matrix(1 0 0 1 642 2814 )" class="stroke" mask="url(#Clip4)" />
  </g>
</svg>