<?xml version="1.0" encoding="utf-8"?>
<svg version="1.1" xmlns:xlink="http://www.w3.org/1999/xlink" width="49px" height="49px" xmlns="http://www.w3.org/2000/svg">
  <defs>
    <pattern id="BGPattern" patternUnits="userSpaceOnUse" alignment="0 0" imageRepeat="None" />
    <mask fill="white" id="Clip2">
      <path d="M 9.1875 0  L 39.8125 0  C 42.34331597222223 0  44.50726996527778 0.8985460069444414  46.304361979166664 2.6956380208333353  C 48.10145399305555 4.492730034722218  49 6.6566840277777715  49 9.1875  L 49 39.8125  C 49 42.34331597222222  48.10145399305555 44.50726996527778  46.304361979166664 46.304361979166664  C 44.50726996527778 48.10145399305555  42.34331597222223 49  39.8125 49  L 33 49  L 33 30.01888020833333  L 40.163411458333336 30.01888020833333  L 41.120442708333336 22.617838541666664  L 33.815104166666664 22.617838541666664  L 33.815104166666664 17.896484375  C 33.815104166666664 16.70551215277777  34.06499565972223 15.812282986111107  34.564778645833336 15.216796875  C 35.06456163194445 14.621310763888888  36.03754340277778 14.323567708333336  37.483723958333336 14.323567708333336  L 41.375651041666664 14.291666666666664  L 41.375651041666664 7.688151041666665  C 40.035807291666664 7.496744791666665  38.14301215277778 7.401041666666665  35.697265625 7.401041666666665  C 32.80490451388889 7.401041666666665  30.492078993055557 8.251736111111107  28.7587890625 9.953125  C 27.025499131944446 11.654513888888888  26.158854166666664 14.057725694444441  26.158854166666664 17.162760416666664  L 26.158854166666664 22.617838541666664  L 19.778645833333332 22.617838541666664  L 19.778645833333332 30.01888020833333  L 26 30.01888020833333  L 26 49  L 9.1875 49  C 6.656684027777778 49  4.492730034722222 48.10145399305555  2.6956380208333335 46.304361979166664  C 0.8985460069444443 44.50726996527778  0 42.34331597222222  0 39.8125  L 0 9.1875  C 0 6.6566840277777715  0.8985460069444443 4.492730034722218  2.6956380208333335 2.6956380208333353  C 4.492730034722222 0.8985460069444414  6.656684027777778 0  9.1875 0  Z " fill-rule="evenodd" />
    </mask>
  </defs>
  <g transform="matrix(1 0 0 1 -444 -2809 )">
    <path d="M 9.1875 0  L 39.8125 0  C 42.34331597222223 0  44.50726996527778 0.8985460069444414  46.304361979166664 2.6956380208333353  C 48.10145399305555 4.492730034722218  49 6.6566840277777715  49 9.1875  L 49 39.8125  C 49 42.34331597222222  48.10145399305555 44.50726996527778  46.304361979166664 46.304361979166664  C 44.50726996527778 48.10145399305555  42.34331597222223 49  39.8125 49  L 33 49  L 33 30.01888020833333  L 40.163411458333336 30.01888020833333  L 41.120442708333336 22.617838541666664  L 33.815104166666664 22.617838541666664  L 33.815104166666664 17.896484375  C 33.815104166666664 16.70551215277777  34.06499565972223 15.812282986111107  34.564778645833336 15.216796875  C 35.06456163194445 14.621310763888888  36.03754340277778 14.323567708333336  37.483723958333336 14.323567708333336  L 41.375651041666664 14.291666666666664  L 41.375651041666664 7.688151041666665  C 40.035807291666664 7.496744791666665  38.14301215277778 7.401041666666665  35.697265625 7.401041666666665  C 32.80490451388889 7.401041666666665  30.492078993055557 8.251736111111107  28.7587890625 9.953125  C 27.025499131944446 11.654513888888888  26.158854166666664 14.057725694444441  26.158854166666664 17.162760416666664  L 26.158854166666664 22.617838541666664  L 19.778645833333332 22.617838541666664  L 19.778645833333332 30.01888020833333  L 26 30.01888020833333  L 26 49  L 9.1875 49  C 6.656684027777778 49  4.492730034722222 48.10145399305555  2.6956380208333335 46.304361979166664  C 0.8985460069444443 44.50726996527778  0 42.34331597222222  0 39.8125  L 0 9.1875  C 0 6.6566840277777715  0.8985460069444443 4.492730034722218  2.6956380208333335 2.6956380208333353  C 4.492730034722222 0.8985460069444414  6.656684027777778 0  9.1875 0  Z " fill-rule="nonzero" fill="rgba(255, 253, 249, 1)" stroke="none" transform="matrix(1 0 0 1 444 2809 )" class="fill" />
    <path d="M 9.1875 0  L 39.8125 0  C 42.34331597222223 0  44.50726996527778 0.8985460069444414  46.304361979166664 2.6956380208333353  C 48.10145399305555 4.492730034722218  49 6.6566840277777715  49 9.1875  L 49 39.8125  C 49 42.34331597222222  48.10145399305555 44.50726996527778  46.304361979166664 46.304361979166664  C 44.50726996527778 48.10145399305555  42.34331597222223 49  39.8125 49  L 33 49  L 33 30.01888020833333  L 40.163411458333336 30.01888020833333  L 41.120442708333336 22.617838541666664  L 33.815104166666664 22.617838541666664  L 33.815104166666664 17.896484375  C 33.815104166666664 16.70551215277777  34.06499565972223 15.812282986111107  34.564778645833336 15.216796875  C 35.06456163194445 14.621310763888888  36.03754340277778 14.323567708333336  37.483723958333336 14.323567708333336  L 41.375651041666664 14.291666666666664  L 41.375651041666664 7.688151041666665  C 40.035807291666664 7.496744791666665  38.14301215277778 7.401041666666665  35.697265625 7.401041666666665  C 32.80490451388889 7.401041666666665  30.492078993055557 8.251736111111107  28.7587890625 9.953125  C 27.025499131944446 11.654513888888888  26.158854166666664 14.057725694444441  26.158854166666664 17.162760416666664  L 26.158854166666664 22.617838541666664  L 19.778645833333332 22.617838541666664  L 19.778645833333332 30.01888020833333  L 26 30.01888020833333  L 26 49  L 9.1875 49  C 6.656684027777778 49  4.492730034722222 48.10145399305555  2.6956380208333335 46.304361979166664  C 0.8985460069444443 44.50726996527778  0 42.34331597222222  0 39.8125  L 0 9.1875  C 0 6.6566840277777715  0.8985460069444443 4.492730034722218  2.6956380208333335 2.6956380208333353  C 4.492730034722222 0.8985460069444414  6.656684027777778 0  9.1875 0  Z " stroke-width="0" stroke-dasharray="0" stroke="rgba(255, 255, 255, 0)" fill="none" transform="matrix(1 0 0 1 444 2809 )" class="stroke" mask="url(#Clip2)" />
  </g>
</svg>