<?xml version="1.0" encoding="utf-8"?>
<svg version="1.1" xmlns:xlink="http://www.w3.org/1999/xlink" width="30px" height="45px" xmlns="http://www.w3.org/2000/svg">
  <defs>
    <pattern id="BGPattern" patternUnits="userSpaceOnUse" alignment="0 0" imageRepeat="None" />
    <mask fill="white" id="Clip6">
      <path d="M 20.302734375 20.302734375  C 21.767578125 18.837890625  22.5 17.0703125  22.5 15.000000000000002  C 22.5 12.929687499999998  21.767578125 11.162109375  20.302734375 9.697265624999998  C 18.837890625 8.232421875000002  17.070312500000004 7.499999999999998  15 7.499999999999998  C 12.929687500000002 7.499999999999998  11.162109375 8.232421875000002  9.697265625 9.697265624999998  C 8.232421875 11.162109375  7.5 12.929687499999998  7.5 15.000000000000002  C 7.5 17.0703125  8.232421875 18.837890625  9.697265625 20.302734375  C 11.162109375 21.767578125  12.929687500000002 22.5  15 22.5  C 17.070312500000004 22.5  18.837890625 21.767578125  20.302734375 20.302734375  Z M 25.60546875 4.39453125  C 28.53515625 7.324218749999998  30 10.859374999999995  30 15.000000000000002  C 30 17.128906249999996  29.677734375 18.876953125  29.033203125 20.244140625  L 18.369140625 42.919921875  C 18.056640625 43.564453125  17.5927734375 44.07226562499999  16.9775390625 44.443359375  C 16.3623046875 44.814453125  15.703125 45  15 45  C 14.296875 45  13.6376953125 44.814453125  13.0224609375 44.443359375  C 12.4072265625 44.07226562499999  11.953125 43.564453125  11.66015625 42.919921875  L 0.966796875 20.244140625  C 0.322265625 18.876953125  0 17.128906249999996  0 15.000000000000002  C 0 10.859374999999995  1.46484375 7.324218749999998  4.39453125 4.39453125  C 7.324218750000001 1.4648437500000018  10.859375 0  15 0  C 19.140625 0  22.67578125 1.4648437500000018  25.60546875 4.39453125  Z " fill-rule="evenodd" />
    </mask>
  </defs>
  <g transform="matrix(1 0 0 1 -958 -2809 )">
    <path d="M 20.302734375 20.302734375  C 21.767578125 18.837890625  22.5 17.0703125  22.5 15.000000000000002  C 22.5 12.929687499999998  21.767578125 11.162109375  20.302734375 9.697265624999998  C 18.837890625 8.232421875000002  17.070312500000004 7.499999999999998  15 7.499999999999998  C 12.929687500000002 7.499999999999998  11.162109375 8.232421875000002  9.697265625 9.697265624999998  C 8.232421875 11.162109375  7.5 12.929687499999998  7.5 15.000000000000002  C 7.5 17.0703125  8.232421875 18.837890625  9.697265625 20.302734375  C 11.162109375 21.767578125  12.929687500000002 22.5  15 22.5  C 17.070312500000004 22.5  18.837890625 21.767578125  20.302734375 20.302734375  Z M 25.60546875 4.39453125  C 28.53515625 7.324218749999998  30 10.859374999999995  30 15.000000000000002  C 30 17.128906249999996  29.677734375 18.876953125  29.033203125 20.244140625  L 18.369140625 42.919921875  C 18.056640625 43.564453125  17.5927734375 44.07226562499999  16.9775390625 44.443359375  C 16.3623046875 44.814453125  15.703125 45  15 45  C 14.296875 45  13.6376953125 44.814453125  13.0224609375 44.443359375  C 12.4072265625 44.07226562499999  11.953125 43.564453125  11.66015625 42.919921875  L 0.966796875 20.244140625  C 0.322265625 18.876953125  0 17.128906249999996  0 15.000000000000002  C 0 10.859374999999995  1.46484375 7.324218749999998  4.39453125 4.39453125  C 7.324218750000001 1.4648437500000018  10.859375 0  15 0  C 19.140625 0  22.67578125 1.4648437500000018  25.60546875 4.39453125  Z " fill-rule="nonzero" fill="rgba(255, 255, 255, 1)" stroke="none" transform="matrix(1 0 0 1 958 2809 )" class="fill" />
    <path d="M 20.302734375 20.302734375  C 21.767578125 18.837890625  22.5 17.0703125  22.5 15.000000000000002  C 22.5 12.929687499999998  21.767578125 11.162109375  20.302734375 9.697265624999998  C 18.837890625 8.232421875000002  17.070312500000004 7.499999999999998  15 7.499999999999998  C 12.929687500000002 7.499999999999998  11.162109375 8.232421875000002  9.697265625 9.697265624999998  C 8.232421875 11.162109375  7.5 12.929687499999998  7.5 15.000000000000002  C 7.5 17.0703125  8.232421875 18.837890625  9.697265625 20.302734375  C 11.162109375 21.767578125  12.929687500000002 22.5  15 22.5  C 17.070312500000004 22.5  18.837890625 21.767578125  20.302734375 20.302734375  Z " stroke-width="0" stroke-dasharray="0" stroke="rgba(255, 255, 255, 0)" fill="none" transform="matrix(1 0 0 1 958 2809 )" class="stroke" mask="url(#Clip6)" />
    <path d="M 25.60546875 4.39453125  C 28.53515625 7.324218749999998  30 10.859374999999995  30 15.000000000000002  C 30 17.128906249999996  29.677734375 18.876953125  29.033203125 20.244140625  L 18.369140625 42.919921875  C 18.056640625 43.564453125  17.5927734375 44.07226562499999  16.9775390625 44.443359375  C 16.3623046875 44.814453125  15.703125 45  15 45  C 14.296875 45  13.6376953125 44.814453125  13.0224609375 44.443359375  C 12.4072265625 44.07226562499999  11.953125 43.564453125  11.66015625 42.919921875  L 0.966796875 20.244140625  C 0.322265625 18.876953125  0 17.128906249999996  0 15.000000000000002  C 0 10.859374999999995  1.46484375 7.324218749999998  4.39453125 4.39453125  C 7.324218750000001 1.4648437500000018  10.859375 0  15 0  C 19.140625 0  22.67578125 1.4648437500000018  25.60546875 4.39453125  Z " stroke-width="0" stroke-dasharray="0" stroke="rgba(255, 255, 255, 0)" fill="none" transform="matrix(1 0 0 1 958 2809 )" class="stroke" mask="url(#Clip6)" />
  </g>
</svg>