<?xml version="1.0" encoding="utf-8"?>
<svg version="1.1" xmlns:xlink="http://www.w3.org/1999/xlink" width="60px" height="48px" xmlns="http://www.w3.org/2000/svg">
  <defs>
    <pattern id="BGPattern" patternUnits="userSpaceOnUse" alignment="0 0" imageRepeat="None" />
    <mask fill="white" id="Clip5">
      <path d="M 52.91878172588832 7.575000000000001  C 55.27918781725889 7.324999999999999  57.63959390862944 6.699999999999992  60 5.700000000000001  C 58.29949238578681 8.149999999999995  56.24365482233503 10.237499999999999  53.83248730964467 11.962500000000002  C 53.85786802030457 12.312499999999998  53.870558375634516 12.837499999999995  53.870558375634516 13.537499999999998  C 53.870558375634516 16.787499999999994  53.38832487309645 20.031249999999996  52.423857868020306 23.268749999999997  C 51.45939086294417 26.506249999999994  49.993654822335024 29.6125  48.026649746192895 32.587500000000006  C 46.059644670050766 35.5625  43.718274111675136 38.193749999999994  41.00253807106599 40.48125  C 38.286802030456855 42.76875  35.01269035532995 44.59375  31.180203045685282 45.95625  C 27.347715736040612 47.318749999999994  23.248730964467008 48  18.883248730964468 48  C 12.005076142131982 48  5.710659898477157 46.1875  0 42.5625  C 0.8883248730964471 42.66250000000001  1.8781725888324876 42.712500000000006  2.969543147208122 42.712500000000006  C 8.680203045685282 42.712500000000006  13.769035532994923 40.9875  18.236040609137056 37.537499999999994  C 15.571065989847718 37.4875  13.18527918781726 36.68124999999999  11.078680203045685 35.118750000000006  C 8.972081218274113 33.55624999999999  7.5253807106599 31.562499999999996  6.738578680203046 29.137500000000003  C 7.5761421319796955 29.2625  8.3502538071066 29.325000000000003  9.060913705583756 29.325000000000003  C 10.152284263959391 29.325000000000003  11.230964467005077 29.1875  12.29695431472081 28.912499999999998  C 9.454314720812183 28.3375  7.1002538071066 26.943749999999998  5.234771573604061 24.731250000000003  C 3.369289340101523 22.518749999999997  2.4365482233502544 19.950000000000003  2.4365482233502536 17.025000000000002  L 2.4365482233502536 16.875  C 4.162436548223351 17.825  6.015228426395939 18.3375  7.994923857868021 18.412499999999998  C 6.319796954314721 17.312499999999996  4.9873096446700504 15.874999999999998  3.9974619289340105 14.099999999999998  C 3.0076142131979693 12.324999999999992  2.512690355329949 10.399999999999995  2.512690355329949 8.325000000000001  C 2.512690355329949 6.124999999999998  3.071065989847716 4.087500000000002  4.187817258883249 2.212500000000002  C 7.258883248730965 5.937499999999998  10.996192893401016 8.91875  15.399746192893401 11.15625  C 19.80329949238579 13.39375  24.517766497461928 14.6375  29.543147208121827 14.887500000000001  C 29.34010152284264 13.937499999999996  29.238578680203048 13.012499999999996  29.238578680203048 12.112499999999999  C 29.238578680203048 8.762499999999992  30.437817258883246 5.90625  32.83629441624365 3.543750000000001  C 35.23477157360406 1.1812500000000021  38.13451776649747 0  41.535532994923855 0  C 45.08883248730965 0  48.08375634517766 1.2750000000000021  50.52030456852792 3.825000000000001  C 53.286802030456855 3.299999999999999  55.888324873096444 2.325000000000001  58.3248730964467 0.9000000000000021  C 57.385786802030466 3.7749999999999932  55.583756345177676 6  52.91878172588832 7.575000000000001  Z " fill-rule="evenodd" />
    </mask>
  </defs>
  <g transform="matrix(1 0 0 1 -748 -2809 )">
    <path d="M 52.91878172588832 7.575000000000001  C 55.27918781725889 7.324999999999999  57.63959390862944 6.699999999999992  60 5.700000000000001  C 58.29949238578681 8.149999999999995  56.24365482233503 10.237499999999999  53.83248730964467 11.962500000000002  C 53.85786802030457 12.312499999999998  53.870558375634516 12.837499999999995  53.870558375634516 13.537499999999998  C 53.870558375634516 16.787499999999994  53.38832487309645 20.031249999999996  52.423857868020306 23.268749999999997  C 51.45939086294417 26.506249999999994  49.993654822335024 29.6125  48.026649746192895 32.587500000000006  C 46.059644670050766 35.5625  43.718274111675136 38.193749999999994  41.00253807106599 40.48125  C 38.286802030456855 42.76875  35.01269035532995 44.59375  31.180203045685282 45.95625  C 27.347715736040612 47.318749999999994  23.248730964467008 48  18.883248730964468 48  C 12.005076142131982 48  5.710659898477157 46.1875  0 42.5625  C 0.8883248730964471 42.66250000000001  1.8781725888324876 42.712500000000006  2.969543147208122 42.712500000000006  C 8.680203045685282 42.712500000000006  13.769035532994923 40.9875  18.236040609137056 37.537499999999994  C 15.571065989847718 37.4875  13.18527918781726 36.68124999999999  11.078680203045685 35.118750000000006  C 8.972081218274113 33.55624999999999  7.5253807106599 31.562499999999996  6.738578680203046 29.137500000000003  C 7.5761421319796955 29.2625  8.3502538071066 29.325000000000003  9.060913705583756 29.325000000000003  C 10.152284263959391 29.325000000000003  11.230964467005077 29.1875  12.29695431472081 28.912499999999998  C 9.454314720812183 28.3375  7.1002538071066 26.943749999999998  5.234771573604061 24.731250000000003  C 3.369289340101523 22.518749999999997  2.4365482233502544 19.950000000000003  2.4365482233502536 17.025000000000002  L 2.4365482233502536 16.875  C 4.162436548223351 17.825  6.015228426395939 18.3375  7.994923857868021 18.412499999999998  C 6.319796954314721 17.312499999999996  4.9873096446700504 15.874999999999998  3.9974619289340105 14.099999999999998  C 3.0076142131979693 12.324999999999992  2.512690355329949 10.399999999999995  2.512690355329949 8.325000000000001  C 2.512690355329949 6.124999999999998  3.071065989847716 4.087500000000002  4.187817258883249 2.212500000000002  C 7.258883248730965 5.937499999999998  10.996192893401016 8.91875  15.399746192893401 11.15625  C 19.80329949238579 13.39375  24.517766497461928 14.6375  29.543147208121827 14.887500000000001  C 29.34010152284264 13.937499999999996  29.238578680203048 13.012499999999996  29.238578680203048 12.112499999999999  C 29.238578680203048 8.762499999999992  30.437817258883246 5.90625  32.83629441624365 3.543750000000001  C 35.23477157360406 1.1812500000000021  38.13451776649747 0  41.535532994923855 0  C 45.08883248730965 0  48.08375634517766 1.2750000000000021  50.52030456852792 3.825000000000001  C 53.286802030456855 3.299999999999999  55.888324873096444 2.325000000000001  58.3248730964467 0.9000000000000021  C 57.385786802030466 3.7749999999999932  55.583756345177676 6  52.91878172588832 7.575000000000001  Z " fill-rule="nonzero" fill="rgba(255, 253, 249, 1)" stroke="none" transform="matrix(1 0 0 1 748 2809 )" class="fill" />
    <path d="M 52.91878172588832 7.575000000000001  C 55.27918781725889 7.324999999999999  57.63959390862944 6.699999999999992  60 5.700000000000001  C 58.29949238578681 8.149999999999995  56.24365482233503 10.237499999999999  53.83248730964467 11.962500000000002  C 53.85786802030457 12.312499999999998  53.870558375634516 12.837499999999995  53.870558375634516 13.537499999999998  C 53.870558375634516 16.787499999999994  53.38832487309645 20.031249999999996  52.423857868020306 23.268749999999997  C 51.45939086294417 26.506249999999994  49.993654822335024 29.6125  48.026649746192895 32.587500000000006  C 46.059644670050766 35.5625  43.718274111675136 38.193749999999994  41.00253807106599 40.48125  C 38.286802030456855 42.76875  35.01269035532995 44.59375  31.180203045685282 45.95625  C 27.347715736040612 47.318749999999994  23.248730964467008 48  18.883248730964468 48  C 12.005076142131982 48  5.710659898477157 46.1875  0 42.5625  C 0.8883248730964471 42.66250000000001  1.8781725888324876 42.712500000000006  2.969543147208122 42.712500000000006  C 8.680203045685282 42.712500000000006  13.769035532994923 40.9875  18.236040609137056 37.537499999999994  C 15.571065989847718 37.4875  13.18527918781726 36.68124999999999  11.078680203045685 35.118750000000006  C 8.972081218274113 33.55624999999999  7.5253807106599 31.562499999999996  6.738578680203046 29.137500000000003  C 7.5761421319796955 29.2625  8.3502538071066 29.325000000000003  9.060913705583756 29.325000000000003  C 10.152284263959391 29.325000000000003  11.230964467005077 29.1875  12.29695431472081 28.912499999999998  C 9.454314720812183 28.3375  7.1002538071066 26.943749999999998  5.234771573604061 24.731250000000003  C 3.369289340101523 22.518749999999997  2.4365482233502544 19.950000000000003  2.4365482233502536 17.025000000000002  L 2.4365482233502536 16.875  C 4.162436548223351 17.825  6.015228426395939 18.3375  7.994923857868021 18.412499999999998  C 6.319796954314721 17.312499999999996  4.9873096446700504 15.874999999999998  3.9974619289340105 14.099999999999998  C 3.0076142131979693 12.324999999999992  2.512690355329949 10.399999999999995  2.512690355329949 8.325000000000001  C 2.512690355329949 6.124999999999998  3.071065989847716 4.087500000000002  4.187817258883249 2.212500000000002  C 7.258883248730965 5.937499999999998  10.996192893401016 8.91875  15.399746192893401 11.15625  C 19.80329949238579 13.39375  24.517766497461928 14.6375  29.543147208121827 14.887500000000001  C 29.34010152284264 13.937499999999996  29.238578680203048 13.012499999999996  29.238578680203048 12.112499999999999  C 29.238578680203048 8.762499999999992  30.437817258883246 5.90625  32.83629441624365 3.543750000000001  C 35.23477157360406 1.1812500000000021  38.13451776649747 0  41.535532994923855 0  C 45.08883248730965 0  48.08375634517766 1.2750000000000021  50.52030456852792 3.825000000000001  C 53.286802030456855 3.299999999999999  55.888324873096444 2.325000000000001  58.3248730964467 0.9000000000000021  C 57.385786802030466 3.7749999999999932  55.583756345177676 6  52.91878172588832 7.575000000000001  Z " stroke-width="0" stroke-dasharray="0" stroke="rgba(255, 255, 255, 0)" fill="none" transform="matrix(1 0 0 1 748 2809 )" class="stroke" mask="url(#Clip5)" />
  </g>
</svg>