<?xml version="1.0" encoding="utf-8"?>
<svg version="1.1" xmlns:xlink="http://www.w3.org/1999/xlink" width="49px" height="49px" xmlns="http://www.w3.org/2000/svg">
  <defs>
    <pattern id="BGPattern" patternUnits="userSpaceOnUse" alignment="0 0" imageRepeat="None" />
    <mask fill="white" id="Clip1">
      <path d="M 30.274088541666664 30.27408854166667  C 31.869140625 28.67903645833333  32.666666666666664 26.754340277777775  32.666666666666664 24.5  C 32.666666666666664 22.245659722222218  31.869140625 20.320963541666664  30.274088541666664 18.725911458333336  C 28.679036458333336 17.130859375  26.754340277777782 16.333333333333336  24.5 16.333333333333336  C 22.245659722222225 16.333333333333336  20.320963541666668 17.130859375  18.725911458333332 18.725911458333336  C 17.130859375 20.320963541666664  16.333333333333332 22.245659722222218  16.333333333333332 24.5  C 16.333333333333332 26.754340277777775  17.130859375 28.67903645833333  18.725911458333332 30.27408854166667  C 20.320963541666668 31.869140625  22.245659722222225 32.66666666666667  24.5 32.66666666666667  C 26.754340277777782 32.66666666666667  28.679036458333336 31.869140625  30.274088541666664 30.27408854166667  Z M 33.400390625 15.599609375  C 35.84613715277778 18.04535590277777  37.069010416666664 21.01215277777777  37.069010416666664 24.5  C 37.069010416666664 27.987847222222225  35.84613715277778 30.954644097222225  33.400390625 33.400390625  C 30.954644097222225 35.84613715277778  27.987847222222225 37.069010416666664  24.5 37.069010416666664  C 21.01215277777778 37.069010416666664  18.04535590277778 35.84613715277778  15.599609375 33.400390625  C 13.153862847222223 30.954644097222225  11.930989583333334 27.987847222222225  11.930989583333334 24.5  C 11.930989583333334 21.01215277777777  13.153862847222223 18.04535590277777  15.599609375 15.599609375  C 18.04535590277778 13.153862847222218  21.01215277777778 11.930989583333336  24.5 11.930989583333336  C 27.987847222222225 11.930989583333336  30.954644097222225 13.153862847222218  33.400390625 15.599609375  Z M 39.652994791666664 9.347005208333336  C 40.227213541666664 9.921223958333336  40.514322916666664 10.612413194444441  40.514322916666664 11.420572916666664  C 40.514322916666664 12.228732638888888  40.227213541666664 12.919921875  39.652994791666664 13.494140625  C 39.078776041666664 14.068359375  38.38758680555556 14.35546875  37.579427083333336 14.35546875  C 36.771267361111114 14.35546875  36.080078125 14.068359375  35.505859375 13.494140625  C 34.931640625 12.919921875  34.64453125 12.228732638888888  34.64453125 11.420572916666664  C 34.64453125 10.612413194444441  34.931640625 9.921223958333336  35.505859375 9.347005208333336  C 36.080078125 8.772786458333336  36.771267361111114 8.485677083333336  37.579427083333336 8.485677083333336  C 38.38758680555556 8.485677083333336  39.078776041666664 8.772786458333336  39.652994791666664 9.347005208333336  Z M 26.9404296875 4.386393229166665  C 25.462348090277782 4.397026909722218  24.648871527777782 4.40234375  24.5 4.40234375  C 24.351128472222225 4.40234375  23.537651909722225 4.397026909722218  22.0595703125 4.386393229166665  C 20.58148871527778 4.375759548611106  19.459635416666668 4.375759548611106  18.694010416666668 4.386393229166665  C 17.928385416666668 4.397026909722218  16.902235243055557 4.428927951388888  15.615559895833332 4.482096354166665  C 14.328884548611114 4.535264756944441  13.233615451388891 4.6416015625  12.329752604166668 4.801106770833335  C 11.425889756944445 4.960611979166665  10.665581597222223 5.157335069444441  10.048828125 5.391276041666665  C 8.985460069444445 5.816623263888888  8.049696180555555 6.433376736111106  7.241536458333334 7.241536458333335  C 6.433376736111112 8.049696180555554  5.816623263888889 8.985460069444441  5.391276041666667 10.048828125  C 5.157335069444445 10.665581597222218  4.960611979166667 11.425889756944441  4.801106770833333 12.329752604166664  C 4.6416015625 13.233615451388888  4.535264756944445 14.328884548611107  4.482096354166667 15.615559895833336  C 4.428927951388889 16.902235243055554  4.397026909722222 17.928385416666664  4.386393229166667 18.694010416666664  C 4.375759548611112 19.459635416666664  4.375759548611112 20.58148871527777  4.386393229166667 22.0595703125  C 4.397026909722222 23.537651909722218  4.40234375 24.351128472222218  4.40234375 24.5  C 4.40234375 24.648871527777775  4.397026909722222 25.462348090277775  4.386393229166667 26.9404296875  C 4.375759548611112 28.418511284722225  4.375759548611112 29.54036458333333  4.386393229166667 30.30598958333333  C 4.397026909722222 31.07161458333333  4.428927951388889 32.097764756944436  4.482096354166667 33.38444010416667  C 4.535264756944445 34.671115451388886  4.6416015625 35.76638454861111  4.801106770833333 36.67024739583333  C 4.960611979166667 37.57411024305555  5.157335069444445 38.33441840277777  5.391276041666667 38.951171875  C 5.816623263888889 40.01453993055555  6.433376736111112 40.95030381944445  7.241536458333334 41.758463541666664  C 8.049696180555555 42.566623263888886  8.985460069444445 43.183376736111114  10.048828125 43.608723958333336  C 10.665581597222223 43.84266493055555  11.425889756944445 44.039388020833336  12.329752604166668 44.198893229166664  C 13.233615451388891 44.3583984375  14.328884548611114 44.46473524305555  15.615559895833332 44.517903645833336  C 16.902235243055557 44.571072048611114  17.928385416666668 44.60297309027778  18.694010416666668 44.613606770833336  C 19.459635416666668 44.624240451388886  20.58148871527778 44.624240451388886  22.0595703125 44.613606770833336  C 23.537651909722225 44.60297309027778  24.351128472222225 44.59765625  24.5 44.59765625  C 24.648871527777782 44.59765625  25.462348090277782 44.60297309027778  26.9404296875 44.613606770833336  C 28.418511284722225 44.624240451388886  29.540364583333336 44.624240451388886  30.305989583333336 44.613606770833336  C 31.071614583333336 44.60297309027778  32.09776475694445 44.571072048611114  33.384440104166664 44.517903645833336  C 34.67111545138889 44.46473524305555  35.766384548611114 44.3583984375  36.670247395833336 44.198893229166664  C 37.57411024305556 44.039388020833336  38.33441840277778 43.84266493055555  38.951171875 43.608723958333336  C 40.01453993055556 43.183376736111114  40.95030381944445 42.566623263888886  41.758463541666664 41.758463541666664  C 42.56662326388889 40.95030381944445  43.183376736111114 40.01453993055555  43.608723958333336 38.951171875  C 43.84266493055556 38.33441840277777  44.039388020833336 37.57411024305555  44.198893229166664 36.67024739583333  C 44.3583984375 35.76638454861111  44.46473524305556 34.671115451388886  44.517903645833336 33.38444010416667  C 44.571072048611114 32.097764756944436  44.60297309027778 31.07161458333333  44.613606770833336 30.30598958333333  C 44.62424045138889 29.54036458333333  44.62424045138889 28.418511284722225  44.613606770833336 26.9404296875  C 44.60297309027778 25.462348090277775  44.59765625 24.648871527777775  44.59765625 24.5  C 44.59765625 24.351128472222218  44.60297309027778 23.537651909722218  44.613606770833336 22.0595703125  C 44.62424045138889 20.58148871527777  44.62424045138889 19.459635416666664  44.613606770833336 18.694010416666664  C 44.60297309027778 17.928385416666664  44.571072048611114 16.902235243055554  44.517903645833336 15.615559895833336  C 44.46473524305556 14.328884548611107  44.3583984375 13.233615451388888  44.198893229166664 12.329752604166664  C 44.039388020833336 11.425889756944441  43.84266493055556 10.665581597222218  43.608723958333336 10.048828125  C 43.183376736111114 8.985460069444441  42.56662326388889 8.049696180555554  41.758463541666664 7.241536458333335  C 40.95030381944445 6.433376736111106  40.01453993055556 5.816623263888888  38.951171875 5.391276041666665  C 38.33441840277778 5.157335069444441  37.57411024305556 4.960611979166665  36.670247395833336 4.801106770833335  C 35.766384548611114 4.6416015625  34.67111545138889 4.535264756944441  33.384440104166664 4.482096354166665  C 32.09776475694445 4.428927951388888  31.071614583333336 4.397026909722218  30.305989583333336 4.386393229166665  C 29.540364583333336 4.375759548611106  28.418511284722225 4.375759548611106  26.9404296875 4.386393229166665  Z M 48.840494791666664 14.387369791666664  C 48.94683159722222 16.258897569444443  49 19.629774305555554  49 24.5  C 49 29.370225694444446  48.94683159722222 32.74110243055555  48.840494791666664 34.61263020833333  C 48.62782118055556 39.03624131944445  47.309244791666664 42.460286458333336  44.884765625 44.884765625  C 42.460286458333336 47.309244791666664  39.03624131944445 48.62782118055555  34.612630208333336 48.840494791666664  C 32.74110243055556 48.94683159722222  29.370225694444446 49  24.5 49  C 19.629774305555557 49  16.258897569444443 48.94683159722222  14.387369791666668 48.840494791666664  C 9.963758680555557 48.62782118055555  6.539713541666668 47.309244791666664  4.115234375 44.884765625  C 1.6907552083333335 42.460286458333336  0.3721788194444445 39.03624131944445  0.15950520833333334 34.61263020833333  C 0.05316840277777777 32.74110243055555  0 29.370225694444446  0 24.5  C 0 19.629774305555554  0.05316840277777777 16.258897569444443  0.15950520833333334 14.387369791666664  C 0.3721788194444445 9.963758680555554  1.6907552083333335 6.539713541666665  4.115234375 4.115234375  C 6.539713541666668 1.6907552083333353  9.963758680555557 0.3721788194444414  14.387369791666668 0.15950520833333515  C 16.258897569444443 0.05316840277777113  19.629774305555557 0  24.5 0  C 29.370225694444446 0  32.74110243055556 0.05316840277777113  34.612630208333336 0.15950520833333515  C 39.03624131944445 0.3721788194444414  42.460286458333336 1.6907552083333353  44.884765625 4.115234375  C 47.309244791666664 6.539713541666665  48.62782118055556 9.963758680555554  48.840494791666664 14.387369791666664  Z " fill-rule="evenodd" />
    </mask>
  </defs>
  <g transform="matrix(1 0 0 1 -345 -2809 )">
    <path d="M 30.274088541666664 30.27408854166667  C 31.869140625 28.67903645833333  32.666666666666664 26.754340277777775  32.666666666666664 24.5  C 32.666666666666664 22.245659722222218  31.869140625 20.320963541666664  30.274088541666664 18.725911458333336  C 28.679036458333336 17.130859375  26.754340277777782 16.333333333333336  24.5 16.333333333333336  C 22.245659722222225 16.333333333333336  20.320963541666668 17.130859375  18.725911458333332 18.725911458333336  C 17.130859375 20.320963541666664  16.333333333333332 22.245659722222218  16.333333333333332 24.5  C 16.333333333333332 26.754340277777775  17.130859375 28.67903645833333  18.725911458333332 30.27408854166667  C 20.320963541666668 31.869140625  22.245659722222225 32.66666666666667  24.5 32.66666666666667  C 26.754340277777782 32.66666666666667  28.679036458333336 31.869140625  30.274088541666664 30.27408854166667  Z M 33.400390625 15.599609375  C 35.84613715277778 18.04535590277777  37.069010416666664 21.01215277777777  37.069010416666664 24.5  C 37.069010416666664 27.987847222222225  35.84613715277778 30.954644097222225  33.400390625 33.400390625  C 30.954644097222225 35.84613715277778  27.987847222222225 37.069010416666664  24.5 37.069010416666664  C 21.01215277777778 37.069010416666664  18.04535590277778 35.84613715277778  15.599609375 33.400390625  C 13.153862847222223 30.954644097222225  11.930989583333334 27.987847222222225  11.930989583333334 24.5  C 11.930989583333334 21.01215277777777  13.153862847222223 18.04535590277777  15.599609375 15.599609375  C 18.04535590277778 13.153862847222218  21.01215277777778 11.930989583333336  24.5 11.930989583333336  C 27.987847222222225 11.930989583333336  30.954644097222225 13.153862847222218  33.400390625 15.599609375  Z M 39.652994791666664 9.347005208333336  C 40.227213541666664 9.921223958333336  40.514322916666664 10.612413194444441  40.514322916666664 11.420572916666664  C 40.514322916666664 12.228732638888888  40.227213541666664 12.919921875  39.652994791666664 13.494140625  C 39.078776041666664 14.068359375  38.38758680555556 14.35546875  37.579427083333336 14.35546875  C 36.771267361111114 14.35546875  36.080078125 14.068359375  35.505859375 13.494140625  C 34.931640625 12.919921875  34.64453125 12.228732638888888  34.64453125 11.420572916666664  C 34.64453125 10.612413194444441  34.931640625 9.921223958333336  35.505859375 9.347005208333336  C 36.080078125 8.772786458333336  36.771267361111114 8.485677083333336  37.579427083333336 8.485677083333336  C 38.38758680555556 8.485677083333336  39.078776041666664 8.772786458333336  39.652994791666664 9.347005208333336  Z M 26.9404296875 4.386393229166665  C 25.462348090277782 4.397026909722218  24.648871527777782 4.40234375  24.5 4.40234375  C 24.351128472222225 4.40234375  23.537651909722225 4.397026909722218  22.0595703125 4.386393229166665  C 20.58148871527778 4.375759548611106  19.459635416666668 4.375759548611106  18.694010416666668 4.386393229166665  C 17.928385416666668 4.397026909722218  16.902235243055557 4.428927951388888  15.615559895833332 4.482096354166665  C 14.328884548611114 4.535264756944441  13.233615451388891 4.6416015625  12.329752604166668 4.801106770833335  C 11.425889756944445 4.960611979166665  10.665581597222223 5.157335069444441  10.048828125 5.391276041666665  C 8.985460069444445 5.816623263888888  8.049696180555555 6.433376736111106  7.241536458333334 7.241536458333335  C 6.433376736111112 8.049696180555554  5.816623263888889 8.985460069444441  5.391276041666667 10.048828125  C 5.157335069444445 10.665581597222218  4.960611979166667 11.425889756944441  4.801106770833333 12.329752604166664  C 4.6416015625 13.233615451388888  4.535264756944445 14.328884548611107  4.482096354166667 15.615559895833336  C 4.428927951388889 16.902235243055554  4.397026909722222 17.928385416666664  4.386393229166667 18.694010416666664  C 4.375759548611112 19.459635416666664  4.375759548611112 20.58148871527777  4.386393229166667 22.0595703125  C 4.397026909722222 23.537651909722218  4.40234375 24.351128472222218  4.40234375 24.5  C 4.40234375 24.648871527777775  4.397026909722222 25.462348090277775  4.386393229166667 26.9404296875  C 4.375759548611112 28.418511284722225  4.375759548611112 29.54036458333333  4.386393229166667 30.30598958333333  C 4.397026909722222 31.07161458333333  4.428927951388889 32.097764756944436  4.482096354166667 33.38444010416667  C 4.535264756944445 34.671115451388886  4.6416015625 35.76638454861111  4.801106770833333 36.67024739583333  C 4.960611979166667 37.57411024305555  5.157335069444445 38.33441840277777  5.391276041666667 38.951171875  C 5.816623263888889 40.01453993055555  6.433376736111112 40.95030381944445  7.241536458333334 41.758463541666664  C 8.049696180555555 42.566623263888886  8.985460069444445 43.183376736111114  10.048828125 43.608723958333336  C 10.665581597222223 43.84266493055555  11.425889756944445 44.039388020833336  12.329752604166668 44.198893229166664  C 13.233615451388891 44.3583984375  14.328884548611114 44.46473524305555  15.615559895833332 44.517903645833336  C 16.902235243055557 44.571072048611114  17.928385416666668 44.60297309027778  18.694010416666668 44.613606770833336  C 19.459635416666668 44.624240451388886  20.58148871527778 44.624240451388886  22.0595703125 44.613606770833336  C 23.537651909722225 44.60297309027778  24.351128472222225 44.59765625  24.5 44.59765625  C 24.648871527777782 44.59765625  25.462348090277782 44.60297309027778  26.9404296875 44.613606770833336  C 28.418511284722225 44.624240451388886  29.540364583333336 44.624240451388886  30.305989583333336 44.613606770833336  C 31.071614583333336 44.60297309027778  32.09776475694445 44.571072048611114  33.384440104166664 44.517903645833336  C 34.67111545138889 44.46473524305555  35.766384548611114 44.3583984375  36.670247395833336 44.198893229166664  C 37.57411024305556 44.039388020833336  38.33441840277778 43.84266493055555  38.951171875 43.608723958333336  C 40.01453993055556 43.183376736111114  40.95030381944445 42.566623263888886  41.758463541666664 41.758463541666664  C 42.56662326388889 40.95030381944445  43.183376736111114 40.01453993055555  43.608723958333336 38.951171875  C 43.84266493055556 38.33441840277777  44.039388020833336 37.57411024305555  44.198893229166664 36.67024739583333  C 44.3583984375 35.76638454861111  44.46473524305556 34.671115451388886  44.517903645833336 33.38444010416667  C 44.571072048611114 32.097764756944436  44.60297309027778 31.07161458333333  44.613606770833336 30.30598958333333  C 44.62424045138889 29.54036458333333  44.62424045138889 28.418511284722225  44.613606770833336 26.9404296875  C 44.60297309027778 25.462348090277775  44.59765625 24.648871527777775  44.59765625 24.5  C 44.59765625 24.351128472222218  44.60297309027778 23.537651909722218  44.613606770833336 22.0595703125  C 44.62424045138889 20.58148871527777  44.62424045138889 19.459635416666664  44.613606770833336 18.694010416666664  C 44.60297309027778 17.928385416666664  44.571072048611114 16.902235243055554  44.517903645833336 15.615559895833336  C 44.46473524305556 14.328884548611107  44.3583984375 13.233615451388888  44.198893229166664 12.329752604166664  C 44.039388020833336 11.425889756944441  43.84266493055556 10.665581597222218  43.608723958333336 10.048828125  C 43.183376736111114 8.985460069444441  42.56662326388889 8.049696180555554  41.758463541666664 7.241536458333335  C 40.95030381944445 6.433376736111106  40.01453993055556 5.816623263888888  38.951171875 5.391276041666665  C 38.33441840277778 5.157335069444441  37.57411024305556 4.960611979166665  36.670247395833336 4.801106770833335  C 35.766384548611114 4.6416015625  34.67111545138889 4.535264756944441  33.384440104166664 4.482096354166665  C 32.09776475694445 4.428927951388888  31.071614583333336 4.397026909722218  30.305989583333336 4.386393229166665  C 29.540364583333336 4.375759548611106  28.418511284722225 4.375759548611106  26.9404296875 4.386393229166665  Z M 48.840494791666664 14.387369791666664  C 48.94683159722222 16.258897569444443  49 19.629774305555554  49 24.5  C 49 29.370225694444446  48.94683159722222 32.74110243055555  48.840494791666664 34.61263020833333  C 48.62782118055556 39.03624131944445  47.309244791666664 42.460286458333336  44.884765625 44.884765625  C 42.460286458333336 47.309244791666664  39.03624131944445 48.62782118055555  34.612630208333336 48.840494791666664  C 32.74110243055556 48.94683159722222  29.370225694444446 49  24.5 49  C 19.629774305555557 49  16.258897569444443 48.94683159722222  14.387369791666668 48.840494791666664  C 9.963758680555557 48.62782118055555  6.539713541666668 47.309244791666664  4.115234375 44.884765625  C 1.6907552083333335 42.460286458333336  0.3721788194444445 39.03624131944445  0.15950520833333334 34.61263020833333  C 0.05316840277777777 32.74110243055555  0 29.370225694444446  0 24.5  C 0 19.629774305555554  0.05316840277777777 16.258897569444443  0.15950520833333334 14.387369791666664  C 0.3721788194444445 9.963758680555554  1.6907552083333335 6.539713541666665  4.115234375 4.115234375  C 6.539713541666668 1.6907552083333353  9.963758680555557 0.3721788194444414  14.387369791666668 0.15950520833333515  C 16.258897569444443 0.05316840277777113  19.629774305555557 0  24.5 0  C 29.370225694444446 0  32.74110243055556 0.05316840277777113  34.612630208333336 0.15950520833333515  C 39.03624131944445 0.3721788194444414  42.460286458333336 1.6907552083333353  44.884765625 4.115234375  C 47.309244791666664 6.539713541666665  48.62782118055556 9.963758680555554  48.840494791666664 14.387369791666664  Z " fill-rule="nonzero" fill="rgba(255, 253, 249, 1)" stroke="none" transform="matrix(1 0 0 1 345 2809 )" class="fill" />
    <path d="M 30.274088541666664 30.27408854166667  C 31.869140625 28.67903645833333  32.666666666666664 26.754340277777775  32.666666666666664 24.5  C 32.666666666666664 22.245659722222218  31.869140625 20.320963541666664  30.274088541666664 18.725911458333336  C 28.679036458333336 17.130859375  26.754340277777782 16.333333333333336  24.5 16.333333333333336  C 22.245659722222225 16.333333333333336  20.320963541666668 17.130859375  18.725911458333332 18.725911458333336  C 17.130859375 20.320963541666664  16.333333333333332 22.245659722222218  16.333333333333332 24.5  C 16.333333333333332 26.754340277777775  17.130859375 28.67903645833333  18.725911458333332 30.27408854166667  C 20.320963541666668 31.869140625  22.245659722222225 32.66666666666667  24.5 32.66666666666667  C 26.754340277777782 32.66666666666667  28.679036458333336 31.869140625  30.274088541666664 30.27408854166667  Z " stroke-width="0" stroke-dasharray="0" stroke="rgba(255, 255, 255, 0)" fill="none" transform="matrix(1 0 0 1 345 2809 )" class="stroke" mask="url(#Clip1)" />
    <path d="M 33.400390625 15.599609375  C 35.84613715277778 18.04535590277777  37.069010416666664 21.01215277777777  37.069010416666664 24.5  C 37.069010416666664 27.987847222222225  35.84613715277778 30.954644097222225  33.400390625 33.400390625  C 30.954644097222225 35.84613715277778  27.987847222222225 37.069010416666664  24.5 37.069010416666664  C 21.01215277777778 37.069010416666664  18.04535590277778 35.84613715277778  15.599609375 33.400390625  C 13.153862847222223 30.954644097222225  11.930989583333334 27.987847222222225  11.930989583333334 24.5  C 11.930989583333334 21.01215277777777  13.153862847222223 18.04535590277777  15.599609375 15.599609375  C 18.04535590277778 13.153862847222218  21.01215277777778 11.930989583333336  24.5 11.930989583333336  C 27.987847222222225 11.930989583333336  30.954644097222225 13.153862847222218  33.400390625 15.599609375  Z " stroke-width="0" stroke-dasharray="0" stroke="rgba(255, 255, 255, 0)" fill="none" transform="matrix(1 0 0 1 345 2809 )" class="stroke" mask="url(#Clip1)" />
    <path d="M 39.652994791666664 9.347005208333336  C 40.227213541666664 9.921223958333336  40.514322916666664 10.612413194444441  40.514322916666664 11.420572916666664  C 40.514322916666664 12.228732638888888  40.227213541666664 12.919921875  39.652994791666664 13.494140625  C 39.078776041666664 14.068359375  38.38758680555556 14.35546875  37.579427083333336 14.35546875  C 36.771267361111114 14.35546875  36.080078125 14.068359375  35.505859375 13.494140625  C 34.931640625 12.919921875  34.64453125 12.228732638888888  34.64453125 11.420572916666664  C 34.64453125 10.612413194444441  34.931640625 9.921223958333336  35.505859375 9.347005208333336  C 36.080078125 8.772786458333336  36.771267361111114 8.485677083333336  37.579427083333336 8.485677083333336  C 38.38758680555556 8.485677083333336  39.078776041666664 8.772786458333336  39.652994791666664 9.347005208333336  Z " stroke-width="0" stroke-dasharray="0" stroke="rgba(255, 255, 255, 0)" fill="none" transform="matrix(1 0 0 1 345 2809 )" class="stroke" mask="url(#Clip1)" />
    <path d="M 26.9404296875 4.386393229166665  C 25.462348090277782 4.397026909722218  24.648871527777782 4.40234375  24.5 4.40234375  C 24.351128472222225 4.40234375  23.537651909722225 4.397026909722218  22.0595703125 4.386393229166665  C 20.58148871527778 4.375759548611106  19.459635416666668 4.375759548611106  18.694010416666668 4.386393229166665  C 17.928385416666668 4.397026909722218  16.902235243055557 4.428927951388888  15.615559895833332 4.482096354166665  C 14.328884548611114 4.535264756944441  13.233615451388891 4.6416015625  12.329752604166668 4.801106770833335  C 11.425889756944445 4.960611979166665  10.665581597222223 5.157335069444441  10.048828125 5.391276041666665  C 8.985460069444445 5.816623263888888  8.049696180555555 6.433376736111106  7.241536458333334 7.241536458333335  C 6.433376736111112 8.049696180555554  5.816623263888889 8.985460069444441  5.391276041666667 10.048828125  C 5.157335069444445 10.665581597222218  4.960611979166667 11.425889756944441  4.801106770833333 12.329752604166664  C 4.6416015625 13.233615451388888  4.535264756944445 14.328884548611107  4.482096354166667 15.615559895833336  C 4.428927951388889 16.902235243055554  4.397026909722222 17.928385416666664  4.386393229166667 18.694010416666664  C 4.375759548611112 19.459635416666664  4.375759548611112 20.58148871527777  4.386393229166667 22.0595703125  C 4.397026909722222 23.537651909722218  4.40234375 24.351128472222218  4.40234375 24.5  C 4.40234375 24.648871527777775  4.397026909722222 25.462348090277775  4.386393229166667 26.9404296875  C 4.375759548611112 28.418511284722225  4.375759548611112 29.54036458333333  4.386393229166667 30.30598958333333  C 4.397026909722222 31.07161458333333  4.428927951388889 32.097764756944436  4.482096354166667 33.38444010416667  C 4.535264756944445 34.671115451388886  4.6416015625 35.76638454861111  4.801106770833333 36.67024739583333  C 4.960611979166667 37.57411024305555  5.157335069444445 38.33441840277777  5.391276041666667 38.951171875  C 5.816623263888889 40.01453993055555  6.433376736111112 40.95030381944445  7.241536458333334 41.758463541666664  C 8.049696180555555 42.566623263888886  8.985460069444445 43.183376736111114  10.048828125 43.608723958333336  C 10.665581597222223 43.84266493055555  11.425889756944445 44.039388020833336  12.329752604166668 44.198893229166664  C 13.233615451388891 44.3583984375  14.328884548611114 44.46473524305555  15.615559895833332 44.517903645833336  C 16.902235243055557 44.571072048611114  17.928385416666668 44.60297309027778  18.694010416666668 44.613606770833336  C 19.459635416666668 44.624240451388886  20.58148871527778 44.624240451388886  22.0595703125 44.613606770833336  C 23.537651909722225 44.60297309027778  24.351128472222225 44.59765625  24.5 44.59765625  C 24.648871527777782 44.59765625  25.462348090277782 44.60297309027778  26.9404296875 44.613606770833336  C 28.418511284722225 44.624240451388886  29.540364583333336 44.624240451388886  30.305989583333336 44.613606770833336  C 31.071614583333336 44.60297309027778  32.09776475694445 44.571072048611114  33.384440104166664 44.517903645833336  C 34.67111545138889 44.46473524305555  35.766384548611114 44.3583984375  36.670247395833336 44.198893229166664  C 37.57411024305556 44.039388020833336  38.33441840277778 43.84266493055555  38.951171875 43.608723958333336  C 40.01453993055556 43.183376736111114  40.95030381944445 42.566623263888886  41.758463541666664 41.758463541666664  C 42.56662326388889 40.95030381944445  43.183376736111114 40.01453993055555  43.608723958333336 38.951171875  C 43.84266493055556 38.33441840277777  44.039388020833336 37.57411024305555  44.198893229166664 36.67024739583333  C 44.3583984375 35.76638454861111  44.46473524305556 34.671115451388886  44.517903645833336 33.38444010416667  C 44.571072048611114 32.097764756944436  44.60297309027778 31.07161458333333  44.613606770833336 30.30598958333333  C 44.62424045138889 29.54036458333333  44.62424045138889 28.418511284722225  44.613606770833336 26.9404296875  C 44.60297309027778 25.462348090277775  44.59765625 24.648871527777775  44.59765625 24.5  C 44.59765625 24.351128472222218  44.60297309027778 23.537651909722218  44.613606770833336 22.0595703125  C 44.62424045138889 20.58148871527777  44.62424045138889 19.459635416666664  44.613606770833336 18.694010416666664  C 44.60297309027778 17.928385416666664  44.571072048611114 16.902235243055554  44.517903645833336 15.615559895833336  C 44.46473524305556 14.328884548611107  44.3583984375 13.233615451388888  44.198893229166664 12.329752604166664  C 44.039388020833336 11.425889756944441  43.84266493055556 10.665581597222218  43.608723958333336 10.048828125  C 43.183376736111114 8.985460069444441  42.56662326388889 8.049696180555554  41.758463541666664 7.241536458333335  C 40.95030381944445 6.433376736111106  40.01453993055556 5.816623263888888  38.951171875 5.391276041666665  C 38.33441840277778 5.157335069444441  37.57411024305556 4.960611979166665  36.670247395833336 4.801106770833335  C 35.766384548611114 4.6416015625  34.67111545138889 4.535264756944441  33.384440104166664 4.482096354166665  C 32.09776475694445 4.428927951388888  31.071614583333336 4.397026909722218  30.305989583333336 4.386393229166665  C 29.540364583333336 4.375759548611106  28.418511284722225 4.375759548611106  26.9404296875 4.386393229166665  Z " stroke-width="0" stroke-dasharray="0" stroke="rgba(255, 255, 255, 0)" fill="none" transform="matrix(1 0 0 1 345 2809 )" class="stroke" mask="url(#Clip1)" />
    <path d="M 48.840494791666664 14.387369791666664  C 48.94683159722222 16.258897569444443  49 19.629774305555554  49 24.5  C 49 29.370225694444446  48.94683159722222 32.74110243055555  48.840494791666664 34.61263020833333  C 48.62782118055556 39.03624131944445  47.309244791666664 42.460286458333336  44.884765625 44.884765625  C 42.460286458333336 47.309244791666664  39.03624131944445 48.62782118055555  34.612630208333336 48.840494791666664  C 32.74110243055556 48.94683159722222  29.370225694444446 49  24.5 49  C 19.629774305555557 49  16.258897569444443 48.94683159722222  14.387369791666668 48.840494791666664  C 9.963758680555557 48.62782118055555  6.539713541666668 47.309244791666664  4.115234375 44.884765625  C 1.6907552083333335 42.460286458333336  0.3721788194444445 39.03624131944445  0.15950520833333334 34.61263020833333  C 0.05316840277777777 32.74110243055555  0 29.370225694444446  0 24.5  C 0 19.629774305555554  0.05316840277777777 16.258897569444443  0.15950520833333334 14.387369791666664  C 0.3721788194444445 9.963758680555554  1.6907552083333335 6.539713541666665  4.115234375 4.115234375  C 6.539713541666668 1.6907552083333353  9.963758680555557 0.3721788194444414  14.387369791666668 0.15950520833333515  C 16.258897569444443 0.05316840277777113  19.629774305555557 0  24.5 0  C 29.370225694444446 0  32.74110243055556 0.05316840277777113  34.612630208333336 0.15950520833333515  C 39.03624131944445 0.3721788194444414  42.460286458333336 1.6907552083333353  44.884765625 4.115234375  C 47.309244791666664 6.539713541666665  48.62782118055556 9.963758680555554  48.840494791666664 14.387369791666664  Z " stroke-width="0" stroke-dasharray="0" stroke="rgba(255, 255, 255, 0)" fill="none" transform="matrix(1 0 0 1 345 2809 )" class="stroke" mask="url(#Clip1)" />
  </g>
</svg>