<?xml version="1.0" encoding="utf-8"?>
<svg version="1.1" xmlns:xlink="http://www.w3.org/1999/xlink" width="49px" height="49px" xmlns="http://www.w3.org/2000/svg">
  <defs>
    <pattern id="BGPattern" patternUnits="userSpaceOnUse" alignment="0 0" imageRepeat="None" />
    <mask fill="white" id="Clip3">
      <path d="M 12.2021484375 3.366911274182789  C 15.955837673611112 1.1223037580609279  20.05512152777778 0  24.5 0  C 28.944878472222225 0  33.04416232638889 1.1223037580609279  36.7978515625 3.366911274182789  C 40.551540798611114 5.611518790304645  43.52365451388889 8.656993551256392  45.714192708333336 12.503335557038023  C 47.90473090277777 16.349677562819654  49 20.550144540804975  49 25.104736490993997  C 49 30.57460529241716  47.44216579861111 35.494218367800755  44.326497395833336 39.86357571714476  C 41.21082899305556 44.232933066488776  37.18598090277778 47.256615521458755  32.251953125 48.934623082054706  C 31.677734375000007 49.04358461196353  31.252387152777782 48.96731154102735  30.975911458333336 48.70580386924617  C 30.69943576388889 48.44429619746498  30.561197916666664 48.1174116077385  30.561197916666664 47.72515010006671  C 30.561197916666664 47.65977318212141  30.566514756944446 46.82621747831888  30.5771484375 45.224482988659105  C 30.587782118055557 43.622748498999336  30.593098958333336 42.157215921725594  30.593098958333336 40.827885256837895  C 30.593098958333336 38.71403157660662  30.040147569444446 37.166777851901266  28.934244791666664 36.18612408272181  C 30.146484375 36.055370246831224  31.236436631944446 35.85923949299533  32.2041015625 35.59773182121415  C 33.17176649305556 35.33622414943296  34.17133246527778 34.911274182788524  35.202799479166664 34.32288192128085  C 36.23426649305556 33.73448965977318  37.09559461805556 33.009895485879476  37.786783854166664 32.14909939959973  C 38.47797309027778 31.288303313319986  39.04155815972223 30.144207249277294  39.4775390625 28.716811207471643  C 39.91351996527778 27.289415165666  40.131510416666664 25.649544140538133  40.131510416666664 23.79719813208806  C 40.131510416666664 21.203913720257948  39.29144965277778 18.959306204136094  37.611328125 17.063375583722483  C 38.398220486111114 15.080275739381811  38.313151041666664 12.857460529241717  37.356119791666664 10.394929953302201  C 36.76063368055556 10.198799199466313  35.89930555555556 10.318656882366016  34.772135416666664 10.754503002001336  C 33.64496527777778 11.190349121636645  32.666666666666664 11.669779853235493  31.837239583333336 12.192795196797864  L 30.625 12.97731821214143  C 28.64713541666667 12.41071825661552  26.605468750000007 12.127418278852568  24.5 12.127418278852568  C 22.39453125 12.127418278852568  20.352864583333332 12.41071825661552  18.375 12.97731821214143  C 18.034722222222225 12.737602846342003  17.582790798611114 12.443406715588164  17.019205729166668 12.094729819879918  C 16.455620659722225 11.746052924171666  15.567708333333336 11.326551034022684  14.35546875 10.836224149432956  C 13.143229166666668 10.34589726484323  12.239366319444446 10.198799199466313  11.643880208333334 10.394929953302201  C 10.686848958333334 12.857460529241717  10.60177951388889 15.080275739381811  11.388671875 17.063375583722483  C 9.708550347222223 18.959306204136094  8.868489583333334 21.203913720257948  8.868489583333334 23.79719813208806  C 8.868489583333334 25.649544140538133  9.086480034722223 27.28396708917056  9.5224609375 28.700466977985325  C 9.958441840277779 30.116966866800087  10.516710069444445 31.261062930842783  11.197265625 32.13275517011341  C 11.877821180555557 33.00444740938403  12.733832465277779 33.73448965977318  13.765299479166668 34.32288192128085  C 14.796766493055555 34.911274182788524  15.796332465277779 35.33622414943296  16.763997395833332 35.59773182121415  C 17.73166232638889 35.85923949299533  18.821614583333332 36.055370246831224  20.033854166666668 36.18612408272181  C 19.204427083333332 36.97064709806538  18.683376736111114 38.09295085612631  18.470703125 39.5530353569046  C 18.024088541666668 39.77095841672226  17.545572916666668 39.9344007115855  17.03515625 40.04336224149433  C 16.524739583333332 40.15232377140316  15.918619791666668 40.20680453635757  15.216796875 40.20680453635757  C 14.514973958333336 40.20680453635757  13.818467881944446 39.97253724705359  13.127278645833332 39.50400266844563  C 12.436089409722223 39.03546808983767  11.84592013888889 38.3544585279075  11.356770833333334 37.460973982655105  C 10.952690972222223 36.763620191238594  10.436957465277779 36.1970202357127  9.8095703125 35.761174116077385  C 9.182183159722223 35.32532799644207  8.655815972222223 35.06382032466088  8.23046875 34.976651100733825  L 7.592447916666666 34.878585723815874  C 7.145833333333334 34.878585723815874  6.837456597222222 34.927618412274846  6.667317708333334 35.0256837891928  C 6.4971788194444455 35.12374916611074  6.444010416666668 35.249054925505895  6.5078125 35.40160106737825  C 6.571614583333334 35.55414720925061  6.667317708333334 35.70669335112297  6.794921875 35.85923949299533  C 6.922526041666668 36.011785634867685  7.060763888888889 36.14253947075828  7.209635416666666 36.25150100066711  L 7.432942708333334 36.41494329553036  C 7.900824652777778 36.63286635534801  8.363389756944445 37.04692016900156  8.820638020833334 37.65710473649099  C 9.277886284722223 38.26728930398043  9.612847222222223 38.82299310651545  9.825520833333334 39.32421614409606  L 10.14453125 40.07605070046698  C 10.421006944444445 40.90415832777407  10.88888888888889 41.574271736713364  11.548177083333334 42.08639092728485  C 12.20746527777778 42.59851011785636  12.919921875000004 42.92539470758284  13.685546875 43.06704469646431  C 14.451171875000004 43.20869468534578  15.190212673611114 43.284967756281965  15.902669270833332 43.29586390927285  C 16.615125868055557 43.30676006226373  17.20529513888889 43.26862352679564  17.673177083333332 43.18145430286858  L 18.406901041666668 43.050700466977986  C 18.406901041666668 43.87880809428508  18.412217881944446 44.8431176339782  18.4228515625 45.94362908605737  C 18.433485243055557 47.04414053813654  18.438802083333332 47.63798087613964  18.438802083333332 47.72515010006671  C 18.438802083333332 48.1174116077385  18.300564236111114 48.44429619746498  18.024088541666668 48.70580386924617  C 17.747612847222225 48.96731154102735  17.322265625 49.04358461196353  16.748046875 48.934623082054706  C 11.814019097222223 47.256615521458755  7.7891710069444455 44.232933066488776  4.673502604166667 39.86357571714476  C 1.5578342013888886 35.494218367800755  0 30.57460529241716  0 25.104736490993997  C 0 20.550144540804975  1.095269097222222 16.349677562819654  3.285807291666667 12.503335557038023  C 5.476345486111112 8.656993551256392  8.44845920138889 5.611518790304645  12.2021484375 3.366911274182789  Z M 8.868489583333334 36.12074716477652  C 9.059895833333334 36.25150100066711  9.198133680555557 36.22970869468535  9.283203125 36.055370246831224  C 9.347005208333334 35.90282410495886  9.272569444444445 35.772070269068266  9.059895833333334 35.66310873915944  C 8.847222222222223 35.59773182121415  8.708984375 35.6195241271959  8.645182291666666 35.728485657104734  C 8.581380208333334 35.88103179897709  8.655815972222223 36.011785634867685  8.868489583333334 36.12074716477652  Z M 9.76171875 37.06871247498332  C 9.974392361111112 37.28663553480097  10.14453125 37.31932399377362  10.272135416666666 37.166777851901266  C 10.421006944444445 37.05781632199243  10.399739583333334 36.883477874138315  10.208333333333334 36.643762508338895  C 9.995659722222223 36.447631754503  9.825520833333334 36.41494329553036  9.697916666666666 36.545697131420944  C 9.54904513888889 36.65465866132977  9.5703125 36.828997109183895  9.76171875 37.06871247498332  Z M 10.686848958333334 38.40893929286191  C 10.878255208333334 38.69223927062486  11.059027777777779 38.76851234156104  11.229166666666666 38.63775850567045  C 11.420572916666666 38.485212363798084  11.420572916666666 38.278185456971315  11.229166666666666 38.016677785190126  C 11.059027777777779 37.73337780742717  10.878255208333334 37.668000889481874  10.686848958333334 37.82054703135423  C 10.495442708333334 37.92950856126306  10.495442708333334 38.12563931509895  10.686848958333334 38.40893929286191  Z M 11.930989583333334 39.912608405603734  C 12.186197916666666 40.17411607738492  12.398871527777779 40.20680453635757  12.569010416666668 40.010673782521685  C 12.739149305555555 39.83633533466756  12.696614583333336 39.62930842784078  12.44140625 39.38959306204136  C 12.186197916666666 39.12808539026017  11.973524305555557 39.095396931287524  11.803385416666666 39.29152768512341  C 11.611979166666666 39.46586613297754  11.65451388888889 39.67289303980431  11.930989583333334 39.912608405603734  Z M 13.78125 41.02401601067378  C 14.100260416666668 41.15476984656438  14.302300347222223 41.08939292861908  14.387369791666668 40.827885256837895  C 14.451171875 40.58816989103847  14.312934027777779 40.41383144318434  13.97265625 40.30486991327552  C 13.653645833333336 40.217700689348455  13.451605902777779 40.293973760284636  13.366536458333332 40.533689126084056  C 13.281467013888891 40.773404491883475  13.419704861111112 40.93684678674672  13.78125 41.02401601067378  Z M 15.88671875 41.350900600400266  C 16.22699652777778 41.350900600400266  16.397135416666668 41.23104291750055  16.397135416666668 40.99132755170113  C 16.397135416666668 40.70802757393818  16.216362847222225 40.58816989103847  15.854817708333332 40.631754503002  C 15.514539930555555 40.631754503002  15.344401041666668 40.75161218590171  15.344401041666668 40.99132755170113  C 15.344401041666668 41.27462752946409  15.525173611111112 41.39448521236379  15.88671875 41.350900600400266  Z M 17.80078125 41.12208138759173  C 18.14105902777778 41.034912163664664  18.289930555555557 40.88236602179231  18.247395833333332 40.66444296197465  C 18.204861111111114 40.42472759617523  18.013454861111114 40.32666221925729  17.673177083333332 40.37024683122081  C 17.332899305555557 40.435623749166105  17.18402777777778 40.59906604402935  17.2265625 40.86057371581054  C 17.269097222222225 41.12208138759173  17.460503472222225 41.2092506115188  17.80078125 41.12208138759173  Z " fill-rule="evenodd" />
    </mask>
  </defs>
  <g transform="matrix(1 0 0 1 -543 -2809 )">
    <path d="M 12.2021484375 3.366911274182789  C 15.955837673611112 1.1223037580609279  20.05512152777778 0  24.5 0  C 28.944878472222225 0  33.04416232638889 1.1223037580609279  36.7978515625 3.366911274182789  C 40.551540798611114 5.611518790304645  43.52365451388889 8.656993551256392  45.714192708333336 12.503335557038023  C 47.90473090277777 16.349677562819654  49 20.550144540804975  49 25.104736490993997  C 49 30.57460529241716  47.44216579861111 35.494218367800755  44.326497395833336 39.86357571714476  C 41.21082899305556 44.232933066488776  37.18598090277778 47.256615521458755  32.251953125 48.934623082054706  C 31.677734375000007 49.04358461196353  31.252387152777782 48.96731154102735  30.975911458333336 48.70580386924617  C 30.69943576388889 48.44429619746498  30.561197916666664 48.1174116077385  30.561197916666664 47.72515010006671  C 30.561197916666664 47.65977318212141  30.566514756944446 46.82621747831888  30.5771484375 45.224482988659105  C 30.587782118055557 43.622748498999336  30.593098958333336 42.157215921725594  30.593098958333336 40.827885256837895  C 30.593098958333336 38.71403157660662  30.040147569444446 37.166777851901266  28.934244791666664 36.18612408272181  C 30.146484375 36.055370246831224  31.236436631944446 35.85923949299533  32.2041015625 35.59773182121415  C 33.17176649305556 35.33622414943296  34.17133246527778 34.911274182788524  35.202799479166664 34.32288192128085  C 36.23426649305556 33.73448965977318  37.09559461805556 33.009895485879476  37.786783854166664 32.14909939959973  C 38.47797309027778 31.288303313319986  39.04155815972223 30.144207249277294  39.4775390625 28.716811207471643  C 39.91351996527778 27.289415165666  40.131510416666664 25.649544140538133  40.131510416666664 23.79719813208806  C 40.131510416666664 21.203913720257948  39.29144965277778 18.959306204136094  37.611328125 17.063375583722483  C 38.398220486111114 15.080275739381811  38.313151041666664 12.857460529241717  37.356119791666664 10.394929953302201  C 36.76063368055556 10.198799199466313  35.89930555555556 10.318656882366016  34.772135416666664 10.754503002001336  C 33.64496527777778 11.190349121636645  32.666666666666664 11.669779853235493  31.837239583333336 12.192795196797864  L 30.625 12.97731821214143  C 28.64713541666667 12.41071825661552  26.605468750000007 12.127418278852568  24.5 12.127418278852568  C 22.39453125 12.127418278852568  20.352864583333332 12.41071825661552  18.375 12.97731821214143  C 18.034722222222225 12.737602846342003  17.582790798611114 12.443406715588164  17.019205729166668 12.094729819879918  C 16.455620659722225 11.746052924171666  15.567708333333336 11.326551034022684  14.35546875 10.836224149432956  C 13.143229166666668 10.34589726484323  12.239366319444446 10.198799199466313  11.643880208333334 10.394929953302201  C 10.686848958333334 12.857460529241717  10.60177951388889 15.080275739381811  11.388671875 17.063375583722483  C 9.708550347222223 18.959306204136094  8.868489583333334 21.203913720257948  8.868489583333334 23.79719813208806  C 8.868489583333334 25.649544140538133  9.086480034722223 27.28396708917056  9.5224609375 28.700466977985325  C 9.958441840277779 30.116966866800087  10.516710069444445 31.261062930842783  11.197265625 32.13275517011341  C 11.877821180555557 33.00444740938403  12.733832465277779 33.73448965977318  13.765299479166668 34.32288192128085  C 14.796766493055555 34.911274182788524  15.796332465277779 35.33622414943296  16.763997395833332 35.59773182121415  C 17.73166232638889 35.85923949299533  18.821614583333332 36.055370246831224  20.033854166666668 36.18612408272181  C 19.204427083333332 36.97064709806538  18.683376736111114 38.09295085612631  18.470703125 39.5530353569046  C 18.024088541666668 39.77095841672226  17.545572916666668 39.9344007115855  17.03515625 40.04336224149433  C 16.524739583333332 40.15232377140316  15.918619791666668 40.20680453635757  15.216796875 40.20680453635757  C 14.514973958333336 40.20680453635757  13.818467881944446 39.97253724705359  13.127278645833332 39.50400266844563  C 12.436089409722223 39.03546808983767  11.84592013888889 38.3544585279075  11.356770833333334 37.460973982655105  C 10.952690972222223 36.763620191238594  10.436957465277779 36.1970202357127  9.8095703125 35.761174116077385  C 9.182183159722223 35.32532799644207  8.655815972222223 35.06382032466088  8.23046875 34.976651100733825  L 7.592447916666666 34.878585723815874  C 7.145833333333334 34.878585723815874  6.837456597222222 34.927618412274846  6.667317708333334 35.0256837891928  C 6.4971788194444455 35.12374916611074  6.444010416666668 35.249054925505895  6.5078125 35.40160106737825  C 6.571614583333334 35.55414720925061  6.667317708333334 35.70669335112297  6.794921875 35.85923949299533  C 6.922526041666668 36.011785634867685  7.060763888888889 36.14253947075828  7.209635416666666 36.25150100066711  L 7.432942708333334 36.41494329553036  C 7.900824652777778 36.63286635534801  8.363389756944445 37.04692016900156  8.820638020833334 37.65710473649099  C 9.277886284722223 38.26728930398043  9.612847222222223 38.82299310651545  9.825520833333334 39.32421614409606  L 10.14453125 40.07605070046698  C 10.421006944444445 40.90415832777407  10.88888888888889 41.574271736713364  11.548177083333334 42.08639092728485  C 12.20746527777778 42.59851011785636  12.919921875000004 42.92539470758284  13.685546875 43.06704469646431  C 14.451171875000004 43.20869468534578  15.190212673611114 43.284967756281965  15.902669270833332 43.29586390927285  C 16.615125868055557 43.30676006226373  17.20529513888889 43.26862352679564  17.673177083333332 43.18145430286858  L 18.406901041666668 43.050700466977986  C 18.406901041666668 43.87880809428508  18.412217881944446 44.8431176339782  18.4228515625 45.94362908605737  C 18.433485243055557 47.04414053813654  18.438802083333332 47.63798087613964  18.438802083333332 47.72515010006671  C 18.438802083333332 48.1174116077385  18.300564236111114 48.44429619746498  18.024088541666668 48.70580386924617  C 17.747612847222225 48.96731154102735  17.322265625 49.04358461196353  16.748046875 48.934623082054706  C 11.814019097222223 47.256615521458755  7.7891710069444455 44.232933066488776  4.673502604166667 39.86357571714476  C 1.5578342013888886 35.494218367800755  0 30.57460529241716  0 25.104736490993997  C 0 20.550144540804975  1.095269097222222 16.349677562819654  3.285807291666667 12.503335557038023  C 5.476345486111112 8.656993551256392  8.44845920138889 5.611518790304645  12.2021484375 3.366911274182789  Z M 8.868489583333334 36.12074716477652  C 9.059895833333334 36.25150100066711  9.198133680555557 36.22970869468535  9.283203125 36.055370246831224  C 9.347005208333334 35.90282410495886  9.272569444444445 35.772070269068266  9.059895833333334 35.66310873915944  C 8.847222222222223 35.59773182121415  8.708984375 35.6195241271959  8.645182291666666 35.728485657104734  C 8.581380208333334 35.88103179897709  8.655815972222223 36.011785634867685  8.868489583333334 36.12074716477652  Z M 9.76171875 37.06871247498332  C 9.974392361111112 37.28663553480097  10.14453125 37.31932399377362  10.272135416666666 37.166777851901266  C 10.421006944444445 37.05781632199243  10.399739583333334 36.883477874138315  10.208333333333334 36.643762508338895  C 9.995659722222223 36.447631754503  9.825520833333334 36.41494329553036  9.697916666666666 36.545697131420944  C 9.54904513888889 36.65465866132977  9.5703125 36.828997109183895  9.76171875 37.06871247498332  Z M 10.686848958333334 38.40893929286191  C 10.878255208333334 38.69223927062486  11.059027777777779 38.76851234156104  11.229166666666666 38.63775850567045  C 11.420572916666666 38.485212363798084  11.420572916666666 38.278185456971315  11.229166666666666 38.016677785190126  C 11.059027777777779 37.73337780742717  10.878255208333334 37.668000889481874  10.686848958333334 37.82054703135423  C 10.495442708333334 37.92950856126306  10.495442708333334 38.12563931509895  10.686848958333334 38.40893929286191  Z M 11.930989583333334 39.912608405603734  C 12.186197916666666 40.17411607738492  12.398871527777779 40.20680453635757  12.569010416666668 40.010673782521685  C 12.739149305555555 39.83633533466756  12.696614583333336 39.62930842784078  12.44140625 39.38959306204136  C 12.186197916666666 39.12808539026017  11.973524305555557 39.095396931287524  11.803385416666666 39.29152768512341  C 11.611979166666666 39.46586613297754  11.65451388888889 39.67289303980431  11.930989583333334 39.912608405603734  Z M 13.78125 41.02401601067378  C 14.100260416666668 41.15476984656438  14.302300347222223 41.08939292861908  14.387369791666668 40.827885256837895  C 14.451171875 40.58816989103847  14.312934027777779 40.41383144318434  13.97265625 40.30486991327552  C 13.653645833333336 40.217700689348455  13.451605902777779 40.293973760284636  13.366536458333332 40.533689126084056  C 13.281467013888891 40.773404491883475  13.419704861111112 40.93684678674672  13.78125 41.02401601067378  Z M 15.88671875 41.350900600400266  C 16.22699652777778 41.350900600400266  16.397135416666668 41.23104291750055  16.397135416666668 40.99132755170113  C 16.397135416666668 40.70802757393818  16.216362847222225 40.58816989103847  15.854817708333332 40.631754503002  C 15.514539930555555 40.631754503002  15.344401041666668 40.75161218590171  15.344401041666668 40.99132755170113  C 15.344401041666668 41.27462752946409  15.525173611111112 41.39448521236379  15.88671875 41.350900600400266  Z M 17.80078125 41.12208138759173  C 18.14105902777778 41.034912163664664  18.289930555555557 40.88236602179231  18.247395833333332 40.66444296197465  C 18.204861111111114 40.42472759617523  18.013454861111114 40.32666221925729  17.673177083333332 40.37024683122081  C 17.332899305555557 40.435623749166105  17.18402777777778 40.59906604402935  17.2265625 40.86057371581054  C 17.269097222222225 41.12208138759173  17.460503472222225 41.2092506115188  17.80078125 41.12208138759173  Z " fill-rule="nonzero" fill="rgba(255, 253, 249, 1)" stroke="none" transform="matrix(1 0 0 1 543 2809 )" class="fill" />
    <path d="M 12.2021484375 3.366911274182789  C 15.955837673611112 1.1223037580609279  20.05512152777778 0  24.5 0  C 28.944878472222225 0  33.04416232638889 1.1223037580609279  36.7978515625 3.366911274182789  C 40.551540798611114 5.611518790304645  43.52365451388889 8.656993551256392  45.714192708333336 12.503335557038023  C 47.90473090277777 16.349677562819654  49 20.550144540804975  49 25.104736490993997  C 49 30.57460529241716  47.44216579861111 35.494218367800755  44.326497395833336 39.86357571714476  C 41.21082899305556 44.232933066488776  37.18598090277778 47.256615521458755  32.251953125 48.934623082054706  C 31.677734375000007 49.04358461196353  31.252387152777782 48.96731154102735  30.975911458333336 48.70580386924617  C 30.69943576388889 48.44429619746498  30.561197916666664 48.1174116077385  30.561197916666664 47.72515010006671  C 30.561197916666664 47.65977318212141  30.566514756944446 46.82621747831888  30.5771484375 45.224482988659105  C 30.587782118055557 43.622748498999336  30.593098958333336 42.157215921725594  30.593098958333336 40.827885256837895  C 30.593098958333336 38.71403157660662  30.040147569444446 37.166777851901266  28.934244791666664 36.18612408272181  C 30.146484375 36.055370246831224  31.236436631944446 35.85923949299533  32.2041015625 35.59773182121415  C 33.17176649305556 35.33622414943296  34.17133246527778 34.911274182788524  35.202799479166664 34.32288192128085  C 36.23426649305556 33.73448965977318  37.09559461805556 33.009895485879476  37.786783854166664 32.14909939959973  C 38.47797309027778 31.288303313319986  39.04155815972223 30.144207249277294  39.4775390625 28.716811207471643  C 39.91351996527778 27.289415165666  40.131510416666664 25.649544140538133  40.131510416666664 23.79719813208806  C 40.131510416666664 21.203913720257948  39.29144965277778 18.959306204136094  37.611328125 17.063375583722483  C 38.398220486111114 15.080275739381811  38.313151041666664 12.857460529241717  37.356119791666664 10.394929953302201  C 36.76063368055556 10.198799199466313  35.89930555555556 10.318656882366016  34.772135416666664 10.754503002001336  C 33.64496527777778 11.190349121636645  32.666666666666664 11.669779853235493  31.837239583333336 12.192795196797864  L 30.625 12.97731821214143  C 28.64713541666667 12.41071825661552  26.605468750000007 12.127418278852568  24.5 12.127418278852568  C 22.39453125 12.127418278852568  20.352864583333332 12.41071825661552  18.375 12.97731821214143  C 18.034722222222225 12.737602846342003  17.582790798611114 12.443406715588164  17.019205729166668 12.094729819879918  C 16.455620659722225 11.746052924171666  15.567708333333336 11.326551034022684  14.35546875 10.836224149432956  C 13.143229166666668 10.34589726484323  12.239366319444446 10.198799199466313  11.643880208333334 10.394929953302201  C 10.686848958333334 12.857460529241717  10.60177951388889 15.080275739381811  11.388671875 17.063375583722483  C 9.708550347222223 18.959306204136094  8.868489583333334 21.203913720257948  8.868489583333334 23.79719813208806  C 8.868489583333334 25.649544140538133  9.086480034722223 27.28396708917056  9.5224609375 28.700466977985325  C 9.958441840277779 30.116966866800087  10.516710069444445 31.261062930842783  11.197265625 32.13275517011341  C 11.877821180555557 33.00444740938403  12.733832465277779 33.73448965977318  13.765299479166668 34.32288192128085  C 14.796766493055555 34.911274182788524  15.796332465277779 35.33622414943296  16.763997395833332 35.59773182121415  C 17.73166232638889 35.85923949299533  18.821614583333332 36.055370246831224  20.033854166666668 36.18612408272181  C 19.204427083333332 36.97064709806538  18.683376736111114 38.09295085612631  18.470703125 39.5530353569046  C 18.024088541666668 39.77095841672226  17.545572916666668 39.9344007115855  17.03515625 40.04336224149433  C 16.524739583333332 40.15232377140316  15.918619791666668 40.20680453635757  15.216796875 40.20680453635757  C 14.514973958333336 40.20680453635757  13.818467881944446 39.97253724705359  13.127278645833332 39.50400266844563  C 12.436089409722223 39.03546808983767  11.84592013888889 38.3544585279075  11.356770833333334 37.460973982655105  C 10.952690972222223 36.763620191238594  10.436957465277779 36.1970202357127  9.8095703125 35.761174116077385  C 9.182183159722223 35.32532799644207  8.655815972222223 35.06382032466088  8.23046875 34.976651100733825  L 7.592447916666666 34.878585723815874  C 7.145833333333334 34.878585723815874  6.837456597222222 34.927618412274846  6.667317708333334 35.0256837891928  C 6.4971788194444455 35.12374916611074  6.444010416666668 35.249054925505895  6.5078125 35.40160106737825  C 6.571614583333334 35.55414720925061  6.667317708333334 35.70669335112297  6.794921875 35.85923949299533  C 6.922526041666668 36.011785634867685  7.060763888888889 36.14253947075828  7.209635416666666 36.25150100066711  L 7.432942708333334 36.41494329553036  C 7.900824652777778 36.63286635534801  8.363389756944445 37.04692016900156  8.820638020833334 37.65710473649099  C 9.277886284722223 38.26728930398043  9.612847222222223 38.82299310651545  9.825520833333334 39.32421614409606  L 10.14453125 40.07605070046698  C 10.421006944444445 40.90415832777407  10.88888888888889 41.574271736713364  11.548177083333334 42.08639092728485  C 12.20746527777778 42.59851011785636  12.919921875000004 42.92539470758284  13.685546875 43.06704469646431  C 14.451171875000004 43.20869468534578  15.190212673611114 43.284967756281965  15.902669270833332 43.29586390927285  C 16.615125868055557 43.30676006226373  17.20529513888889 43.26862352679564  17.673177083333332 43.18145430286858  L 18.406901041666668 43.050700466977986  C 18.406901041666668 43.87880809428508  18.412217881944446 44.8431176339782  18.4228515625 45.94362908605737  C 18.433485243055557 47.04414053813654  18.438802083333332 47.63798087613964  18.438802083333332 47.72515010006671  C 18.438802083333332 48.1174116077385  18.300564236111114 48.44429619746498  18.024088541666668 48.70580386924617  C 17.747612847222225 48.96731154102735  17.322265625 49.04358461196353  16.748046875 48.934623082054706  C 11.814019097222223 47.256615521458755  7.7891710069444455 44.232933066488776  4.673502604166667 39.86357571714476  C 1.5578342013888886 35.494218367800755  0 30.57460529241716  0 25.104736490993997  C 0 20.550144540804975  1.095269097222222 16.349677562819654  3.285807291666667 12.503335557038023  C 5.476345486111112 8.656993551256392  8.44845920138889 5.611518790304645  12.2021484375 3.366911274182789  Z " stroke-width="0" stroke-dasharray="0" stroke="rgba(255, 255, 255, 0)" fill="none" transform="matrix(1 0 0 1 543 2809 )" class="stroke" mask="url(#Clip3)" />
    <path d="M 8.868489583333334 36.12074716477652  C 9.059895833333334 36.25150100066711  9.198133680555557 36.22970869468535  9.283203125 36.055370246831224  C 9.347005208333334 35.90282410495886  9.272569444444445 35.772070269068266  9.059895833333334 35.66310873915944  C 8.847222222222223 35.59773182121415  8.708984375 35.6195241271959  8.645182291666666 35.728485657104734  C 8.581380208333334 35.88103179897709  8.655815972222223 36.011785634867685  8.868489583333334 36.12074716477652  Z " stroke-width="0" stroke-dasharray="0" stroke="rgba(255, 255, 255, 0)" fill="none" transform="matrix(1 0 0 1 543 2809 )" class="stroke" mask="url(#Clip3)" />
    <path d="M 9.76171875 37.06871247498332  C 9.974392361111112 37.28663553480097  10.14453125 37.31932399377362  10.272135416666666 37.166777851901266  C 10.421006944444445 37.05781632199243  10.399739583333334 36.883477874138315  10.208333333333334 36.643762508338895  C 9.995659722222223 36.447631754503  9.825520833333334 36.41494329553036  9.697916666666666 36.545697131420944  C 9.54904513888889 36.65465866132977  9.5703125 36.828997109183895  9.76171875 37.06871247498332  Z " stroke-width="0" stroke-dasharray="0" stroke="rgba(255, 255, 255, 0)" fill="none" transform="matrix(1 0 0 1 543 2809 )" class="stroke" mask="url(#Clip3)" />
    <path d="M 10.686848958333334 38.40893929286191  C 10.878255208333334 38.69223927062486  11.059027777777779 38.76851234156104  11.229166666666666 38.63775850567045  C 11.420572916666666 38.485212363798084  11.420572916666666 38.278185456971315  11.229166666666666 38.016677785190126  C 11.059027777777779 37.73337780742717  10.878255208333334 37.668000889481874  10.686848958333334 37.82054703135423  C 10.495442708333334 37.92950856126306  10.495442708333334 38.12563931509895  10.686848958333334 38.40893929286191  Z " stroke-width="0" stroke-dasharray="0" stroke="rgba(255, 255, 255, 0)" fill="none" transform="matrix(1 0 0 1 543 2809 )" class="stroke" mask="url(#Clip3)" />
    <path d="M 11.930989583333334 39.912608405603734  C 12.186197916666666 40.17411607738492  12.398871527777779 40.20680453635757  12.569010416666668 40.010673782521685  C 12.739149305555555 39.83633533466756  12.696614583333336 39.62930842784078  12.44140625 39.38959306204136  C 12.186197916666666 39.12808539026017  11.973524305555557 39.095396931287524  11.803385416666666 39.29152768512341  C 11.611979166666666 39.46586613297754  11.65451388888889 39.67289303980431  11.930989583333334 39.912608405603734  Z " stroke-width="0" stroke-dasharray="0" stroke="rgba(255, 255, 255, 0)" fill="none" transform="matrix(1 0 0 1 543 2809 )" class="stroke" mask="url(#Clip3)" />
    <path d="M 13.78125 41.02401601067378  C 14.100260416666668 41.15476984656438  14.302300347222223 41.08939292861908  14.387369791666668 40.827885256837895  C 14.451171875 40.58816989103847  14.312934027777779 40.41383144318434  13.97265625 40.30486991327552  C 13.653645833333336 40.217700689348455  13.451605902777779 40.293973760284636  13.366536458333332 40.533689126084056  C 13.281467013888891 40.773404491883475  13.419704861111112 40.93684678674672  13.78125 41.02401601067378  Z " stroke-width="0" stroke-dasharray="0" stroke="rgba(255, 255, 255, 0)" fill="none" transform="matrix(1 0 0 1 543 2809 )" class="stroke" mask="url(#Clip3)" />
    <path d="M 15.88671875 41.350900600400266  C 16.22699652777778 41.350900600400266  16.397135416666668 41.23104291750055  16.397135416666668 40.99132755170113  C 16.397135416666668 40.70802757393818  16.216362847222225 40.58816989103847  15.854817708333332 40.631754503002  C 15.514539930555555 40.631754503002  15.344401041666668 40.75161218590171  15.344401041666668 40.99132755170113  C 15.344401041666668 41.27462752946409  15.525173611111112 41.39448521236379  15.88671875 41.350900600400266  Z " stroke-width="0" stroke-dasharray="0" stroke="rgba(255, 255, 255, 0)" fill="none" transform="matrix(1 0 0 1 543 2809 )" class="stroke" mask="url(#Clip3)" />
    <path d="M 17.80078125 41.12208138759173  C 18.14105902777778 41.034912163664664  18.289930555555557 40.88236602179231  18.247395833333332 40.66444296197465  C 18.204861111111114 40.42472759617523  18.013454861111114 40.32666221925729  17.673177083333332 40.37024683122081  C 17.332899305555557 40.435623749166105  17.18402777777778 40.59906604402935  17.2265625 40.86057371581054  C 17.269097222222225 41.12208138759173  17.460503472222225 41.2092506115188  17.80078125 41.12208138759173  Z " stroke-width="0" stroke-dasharray="0" stroke="rgba(255, 255, 255, 0)" fill="none" transform="matrix(1 0 0 1 543 2809 )" class="stroke" mask="url(#Clip3)" />
  </g>
</svg>