<?xml version="1.0" encoding="utf-8"?>
<svg version="1.1" xmlns:xlink="http://www.w3.org/1999/xlink" width="33px" height="33px" xmlns="http://www.w3.org/2000/svg">
  <defs>
    <pattern id="BGPattern" patternUnits="userSpaceOnUse" alignment="0 0" imageRepeat="None" />
    <mask fill="white" id="Clip19">
      <path d="M 28.551470588235297 25.61948529411765  C 28.92892156862745 25.242034313725487  29.11764705882353 24.790441176470587  29.11764705882353 24.264705882352942  C 29.11764705882353 23.72549019607843  28.92892156862745 23.267156862745097  28.551470588235297 22.889705882352942  L 24.34558823529412 18.683823529411764  C 23.968137254901965 18.30637254901961  23.50980392156863 18.117647058823533  22.970588235294116 18.117647058823533  C 22.404411764705884 18.117647058823533  21.919117647058822 18.333333333333336  21.514705882352942 18.764705882352942  C 21.55514705882353 18.80514705882353  21.68321078431373 18.92984068627451  21.89889705882353 19.13878676470588  C 22.114583333333336 19.347732843137255  22.25949754901961 19.49264705882353  22.33363970588235 19.573529411764707  C 22.4077818627451 19.65441176470588  22.50888480392157 19.782475490196077  22.636948529411764 19.957720588235293  C 22.76501225490196 20.13296568627451  22.85263480392157 20.30484068627451  22.89981617647059 20.473345588235293  C 22.946997549019613 20.641850490196077  22.970588235294116 20.827205882352942  22.970588235294116 21.02941176470588  C 22.970588235294116 21.56862745098039  22.781862745098042 22.026960784313726  22.404411764705884 22.404411764705884  C 22.02696078431373 22.78186274509804  21.568627450980394 22.970588235294116  21.02941176470588 22.970588235294116  C 20.827205882352942 22.970588235294116  20.64185049019608 22.94699754901961  20.473345588235293 22.899816176470587  C 20.304840686274513 22.852634803921568  20.132965686274513 22.765012254901958  19.957720588235293 22.636948529411768  C 19.78247549019608 22.508884803921568  19.654411764705884 22.407781862745093  19.573529411764707 22.33363970588235  C 19.492647058823533 22.259497549019603  19.34773284313726 22.114583333333332  19.13878676470588 21.89889705882353  C 18.92984068627451 21.683210784313726  18.80514705882353 21.55514705882353  18.764705882352942 21.514705882352942  C 18.31985294117647 21.93259803921568  18.097426470588236 22.424632352941174  18.097426470588236 22.990808823529413  C 18.097426470588236 23.53002450980392  18.286151960784316 23.988357843137255  18.66360294117647 24.36580882352941  L 22.829044117647058 28.551470588235297  C 23.19301470588235 28.915441176470587  23.651348039215687 29.097426470588236  24.204044117647058 29.097426470588236  C 24.743259803921568 29.097426470588236  25.201593137254903 28.92218137254902  25.579044117647058 28.57169117647059  L 28.551470588235297 25.61948529411765  Z M 14.23529411764706 11.485294117647058  C 14.680147058823529 11.067401960784311  14.902573529411764 10.575367647058822  14.902573529411764 10.009191176470589  C 14.902573529411764 9.469975490196077  14.713848039215687 9.011642156862742  14.336397058823529 8.634191176470587  L 10.170955882352942 4.448529411764705  C 9.793504901960784 4.071078431372549  9.335171568627452 3.8823529411764715  8.79595588235294 3.8823529411764715  C 8.270220588235293 3.8823529411764715  7.811887254901961 4.064338235294118  7.420955882352941 4.42830882352941  L 4.448529411764706 7.380514705882352  C 4.071078431372549 7.757965686274508  3.8823529411764706 8.209558823529411  3.8823529411764706 8.735294117647058  C 3.8823529411764706 9.274509803921564  4.071078431372549 9.7328431372549  4.448529411764706 10.11029411764706  L 8.654411764705882 14.316176470588236  C 9.018382352941178 14.680147058823529  9.476715686274511 14.862132352941176  10.029411764705882 14.862132352941176  C 10.595588235294118 14.862132352941176  11.080882352941176 14.653186274509803  11.485294117647058 14.23529411764706  C 11.444852941176471 14.194852941176467  11.316789215686276 14.07015931372549  11.101102941176471 13.861213235294118  C 10.885416666666668 13.652267156862745  10.740502450980394 13.507352941176471  10.666360294117649 13.426470588235293  C 10.592218137254903 13.345588235294118  10.491115196078432 13.217524509803923  10.363051470588236 13.042279411764707  C 10.234987745098042 12.867034313725489  10.147365196078432 12.695159313725487  10.100183823529413 12.526654411764707  C 10.053002450980394 12.35814950980392  10.029411764705882 12.17279411764706  10.029411764705882 11.97058823529412  C 10.029411764705882 11.431372549019608  10.218137254901961 10.973039215686272  10.595588235294118 10.595588235294116  C 10.973039215686276 10.218137254901958  11.43137254901961 10.029411764705884  11.970588235294118 10.029411764705884  C 12.17279411764706 10.029411764705884  12.358149509803923 10.053002450980388  12.526654411764705 10.100183823529411  C 12.69515931372549 10.14736519607843  12.86703431372549 10.234987745098037  13.042279411764705 10.363051470588237  C 13.217524509803923 10.491115196078429  13.345588235294118 10.5922181372549  13.426470588235293 10.666360294117649  C 13.507352941176471 10.740502450980388  13.652267156862745 10.885416666666664  13.861213235294118 11.101102941176471  C 14.070159313725492 11.31678921568627  14.194852941176471 11.444852941176471  14.23529411764706 11.485294117647058  Z M 31.301470588235293 20.139705882352942  C 32.43382352941176 21.27205882352941  33 22.647058823529413  33 24.264705882352942  C 33 25.88235294117647  32.427083333333336 27.250612745098042  31.28125 28.369485294117645  L 28.308823529411764 31.321691176470587  C 27.189950980392158 32.44056372549019  25.821691176470587 33  24.204044117647058 33  C 22.57291666666667 33  21.197916666666668 32.427083333333336  20.079044117647058 31.28125  L 15.913602941176471 27.095588235294116  C 14.794730392156865 25.976715686274513  14.23529411764706 24.608455882352942  14.23529411764706 22.990808823529413  C 14.23529411764706 21.332720588235297  14.82843137254902 19.924019607843135  16.014705882352942 18.764705882352942  L 14.23529411764706 16.985294117647058  C 13.075980392156865 18.17156862745098  11.674019607843137 18.764705882352942  10.029411764705882 18.764705882352942  C 8.411764705882351 18.764705882352942  7.036764705882352 18.198529411764707  5.904411764705882 17.066176470588232  L 1.6985294117647058 12.860294117647058  C 0.5661764705882354 11.727941176470587  0 10.352941176470589  0 8.735294117647058  C 0 7.11764705882353  0.5729166666666666 5.749387254901959  1.71875 4.6305147058823515  L 4.6911764705882355 1.678308823529413  C 5.810049019607844 0.5594362745098019  7.178308823529412 0  8.79595588235294 0  C 10.427083333333334 0  11.802083333333336 0.5729166666666646  12.92095588235294 1.7187500000000013  L 17.086397058823533 5.904411764705883  C 18.20526960784314 7.023284313725487  18.764705882352942 8.391544117647058  18.764705882352942 10.009191176470589  C 18.764705882352942 11.667279411764705  18.17156862745098 13.075980392156861  16.985294117647058 14.23529411764706  L 18.764705882352942 16.014705882352942  C 19.92401960784314 14.828431372549018  21.325980392156865 14.235294117647056  22.970588235294116 14.23529411764706  C 24.58823529411765 14.235294117647056  25.963235294117645 14.801470588235293  27.095588235294116 15.933823529411763  L 31.301470588235293 20.139705882352942  Z " fill-rule="evenodd" />
    </mask>
  </defs>
  <g transform="matrix(1 0 0 1 -1166 -2266 )">
    <path d="M 28.551470588235297 25.61948529411765  C 28.92892156862745 25.242034313725487  29.11764705882353 24.790441176470587  29.11764705882353 24.264705882352942  C 29.11764705882353 23.72549019607843  28.92892156862745 23.267156862745097  28.551470588235297 22.889705882352942  L 24.34558823529412 18.683823529411764  C 23.968137254901965 18.30637254901961  23.50980392156863 18.117647058823533  22.970588235294116 18.117647058823533  C 22.404411764705884 18.117647058823533  21.919117647058822 18.333333333333336  21.514705882352942 18.764705882352942  C 21.55514705882353 18.80514705882353  21.68321078431373 18.92984068627451  21.89889705882353 19.13878676470588  C 22.114583333333336 19.347732843137255  22.25949754901961 19.49264705882353  22.33363970588235 19.573529411764707  C 22.4077818627451 19.65441176470588  22.50888480392157 19.782475490196077  22.636948529411764 19.957720588235293  C 22.76501225490196 20.13296568627451  22.85263480392157 20.30484068627451  22.89981617647059 20.473345588235293  C 22.946997549019613 20.641850490196077  22.970588235294116 20.827205882352942  22.970588235294116 21.02941176470588  C 22.970588235294116 21.56862745098039  22.781862745098042 22.026960784313726  22.404411764705884 22.404411764705884  C 22.02696078431373 22.78186274509804  21.568627450980394 22.970588235294116  21.02941176470588 22.970588235294116  C 20.827205882352942 22.970588235294116  20.64185049019608 22.94699754901961  20.473345588235293 22.899816176470587  C 20.304840686274513 22.852634803921568  20.132965686274513 22.765012254901958  19.957720588235293 22.636948529411768  C 19.78247549019608 22.508884803921568  19.654411764705884 22.407781862745093  19.573529411764707 22.33363970588235  C 19.492647058823533 22.259497549019603  19.34773284313726 22.114583333333332  19.13878676470588 21.89889705882353  C 18.92984068627451 21.683210784313726  18.80514705882353 21.55514705882353  18.764705882352942 21.514705882352942  C 18.31985294117647 21.93259803921568  18.097426470588236 22.424632352941174  18.097426470588236 22.990808823529413  C 18.097426470588236 23.53002450980392  18.286151960784316 23.988357843137255  18.66360294117647 24.36580882352941  L 22.829044117647058 28.551470588235297  C 23.19301470588235 28.915441176470587  23.651348039215687 29.097426470588236  24.204044117647058 29.097426470588236  C 24.743259803921568 29.097426470588236  25.201593137254903 28.92218137254902  25.579044117647058 28.57169117647059  L 28.551470588235297 25.61948529411765  Z M 14.23529411764706 11.485294117647058  C 14.680147058823529 11.067401960784311  14.902573529411764 10.575367647058822  14.902573529411764 10.009191176470589  C 14.902573529411764 9.469975490196077  14.713848039215687 9.011642156862742  14.336397058823529 8.634191176470587  L 10.170955882352942 4.448529411764705  C 9.793504901960784 4.071078431372549  9.335171568627452 3.8823529411764715  8.79595588235294 3.8823529411764715  C 8.270220588235293 3.8823529411764715  7.811887254901961 4.064338235294118  7.420955882352941 4.42830882352941  L 4.448529411764706 7.380514705882352  C 4.071078431372549 7.757965686274508  3.8823529411764706 8.209558823529411  3.8823529411764706 8.735294117647058  C 3.8823529411764706 9.274509803921564  4.071078431372549 9.7328431372549  4.448529411764706 10.11029411764706  L 8.654411764705882 14.316176470588236  C 9.018382352941178 14.680147058823529  9.476715686274511 14.862132352941176  10.029411764705882 14.862132352941176  C 10.595588235294118 14.862132352941176  11.080882352941176 14.653186274509803  11.485294117647058 14.23529411764706  C 11.444852941176471 14.194852941176467  11.316789215686276 14.07015931372549  11.101102941176471 13.861213235294118  C 10.885416666666668 13.652267156862745  10.740502450980394 13.507352941176471  10.666360294117649 13.426470588235293  C 10.592218137254903 13.345588235294118  10.491115196078432 13.217524509803923  10.363051470588236 13.042279411764707  C 10.234987745098042 12.867034313725489  10.147365196078432 12.695159313725487  10.100183823529413 12.526654411764707  C 10.053002450980394 12.35814950980392  10.029411764705882 12.17279411764706  10.029411764705882 11.97058823529412  C 10.029411764705882 11.431372549019608  10.218137254901961 10.973039215686272  10.595588235294118 10.595588235294116  C 10.973039215686276 10.218137254901958  11.43137254901961 10.029411764705884  11.970588235294118 10.029411764705884  C 12.17279411764706 10.029411764705884  12.358149509803923 10.053002450980388  12.526654411764705 10.100183823529411  C 12.69515931372549 10.14736519607843  12.86703431372549 10.234987745098037  13.042279411764705 10.363051470588237  C 13.217524509803923 10.491115196078429  13.345588235294118 10.5922181372549  13.426470588235293 10.666360294117649  C 13.507352941176471 10.740502450980388  13.652267156862745 10.885416666666664  13.861213235294118 11.101102941176471  C 14.070159313725492 11.31678921568627  14.194852941176471 11.444852941176471  14.23529411764706 11.485294117647058  Z M 31.301470588235293 20.139705882352942  C 32.43382352941176 21.27205882352941  33 22.647058823529413  33 24.264705882352942  C 33 25.88235294117647  32.427083333333336 27.250612745098042  31.28125 28.369485294117645  L 28.308823529411764 31.321691176470587  C 27.189950980392158 32.44056372549019  25.821691176470587 33  24.204044117647058 33  C 22.57291666666667 33  21.197916666666668 32.427083333333336  20.079044117647058 31.28125  L 15.913602941176471 27.095588235294116  C 14.794730392156865 25.976715686274513  14.23529411764706 24.608455882352942  14.23529411764706 22.990808823529413  C 14.23529411764706 21.332720588235297  14.82843137254902 19.924019607843135  16.014705882352942 18.764705882352942  L 14.23529411764706 16.985294117647058  C 13.075980392156865 18.17156862745098  11.674019607843137 18.764705882352942  10.029411764705882 18.764705882352942  C 8.411764705882351 18.764705882352942  7.036764705882352 18.198529411764707  5.904411764705882 17.066176470588232  L 1.6985294117647058 12.860294117647058  C 0.5661764705882354 11.727941176470587  0 10.352941176470589  0 8.735294117647058  C 0 7.11764705882353  0.5729166666666666 5.749387254901959  1.71875 4.6305147058823515  L 4.6911764705882355 1.678308823529413  C 5.810049019607844 0.5594362745098019  7.178308823529412 0  8.79595588235294 0  C 10.427083333333334 0  11.802083333333336 0.5729166666666646  12.92095588235294 1.7187500000000013  L 17.086397058823533 5.904411764705883  C 18.20526960784314 7.023284313725487  18.764705882352942 8.391544117647058  18.764705882352942 10.009191176470589  C 18.764705882352942 11.667279411764705  18.17156862745098 13.075980392156861  16.985294117647058 14.23529411764706  L 18.764705882352942 16.014705882352942  C 19.92401960784314 14.828431372549018  21.325980392156865 14.235294117647056  22.970588235294116 14.23529411764706  C 24.58823529411765 14.235294117647056  25.963235294117645 14.801470588235293  27.095588235294116 15.933823529411763  L 31.301470588235293 20.139705882352942  Z " fill-rule="nonzero" fill="rgba(66, 218, 162, 1)" stroke="none" transform="matrix(1 0 0 1 1166 2266 )" class="fill" />
    <path d="M 28.551470588235297 25.61948529411765  C 28.92892156862745 25.242034313725487  29.11764705882353 24.790441176470587  29.11764705882353 24.264705882352942  C 29.11764705882353 23.72549019607843  28.92892156862745 23.267156862745097  28.551470588235297 22.889705882352942  L 24.34558823529412 18.683823529411764  C 23.968137254901965 18.30637254901961  23.50980392156863 18.117647058823533  22.970588235294116 18.117647058823533  C 22.404411764705884 18.117647058823533  21.919117647058822 18.333333333333336  21.514705882352942 18.764705882352942  C 21.55514705882353 18.80514705882353  21.68321078431373 18.92984068627451  21.89889705882353 19.13878676470588  C 22.114583333333336 19.347732843137255  22.25949754901961 19.49264705882353  22.33363970588235 19.573529411764707  C 22.4077818627451 19.65441176470588  22.50888480392157 19.782475490196077  22.636948529411764 19.957720588235293  C 22.76501225490196 20.13296568627451  22.85263480392157 20.30484068627451  22.89981617647059 20.473345588235293  C 22.946997549019613 20.641850490196077  22.970588235294116 20.827205882352942  22.970588235294116 21.02941176470588  C 22.970588235294116 21.56862745098039  22.781862745098042 22.026960784313726  22.404411764705884 22.404411764705884  C 22.02696078431373 22.78186274509804  21.568627450980394 22.970588235294116  21.02941176470588 22.970588235294116  C 20.827205882352942 22.970588235294116  20.64185049019608 22.94699754901961  20.473345588235293 22.899816176470587  C 20.304840686274513 22.852634803921568  20.132965686274513 22.765012254901958  19.957720588235293 22.636948529411768  C 19.78247549019608 22.508884803921568  19.654411764705884 22.407781862745093  19.573529411764707 22.33363970588235  C 19.492647058823533 22.259497549019603  19.34773284313726 22.114583333333332  19.13878676470588 21.89889705882353  C 18.92984068627451 21.683210784313726  18.80514705882353 21.55514705882353  18.764705882352942 21.514705882352942  C 18.31985294117647 21.93259803921568  18.097426470588236 22.424632352941174  18.097426470588236 22.990808823529413  C 18.097426470588236 23.53002450980392  18.286151960784316 23.988357843137255  18.66360294117647 24.36580882352941  L 22.829044117647058 28.551470588235297  C 23.19301470588235 28.915441176470587  23.651348039215687 29.097426470588236  24.204044117647058 29.097426470588236  C 24.743259803921568 29.097426470588236  25.201593137254903 28.92218137254902  25.579044117647058 28.57169117647059  L 28.551470588235297 25.61948529411765  Z " stroke-width="0" stroke-dasharray="0" stroke="rgba(255, 255, 255, 0)" fill="none" transform="matrix(1 0 0 1 1166 2266 )" class="stroke" mask="url(#Clip19)" />
    <path d="M 14.23529411764706 11.485294117647058  C 14.680147058823529 11.067401960784311  14.902573529411764 10.575367647058822  14.902573529411764 10.009191176470589  C 14.902573529411764 9.469975490196077  14.713848039215687 9.011642156862742  14.336397058823529 8.634191176470587  L 10.170955882352942 4.448529411764705  C 9.793504901960784 4.071078431372549  9.335171568627452 3.8823529411764715  8.79595588235294 3.8823529411764715  C 8.270220588235293 3.8823529411764715  7.811887254901961 4.064338235294118  7.420955882352941 4.42830882352941  L 4.448529411764706 7.380514705882352  C 4.071078431372549 7.757965686274508  3.8823529411764706 8.209558823529411  3.8823529411764706 8.735294117647058  C 3.8823529411764706 9.274509803921564  4.071078431372549 9.7328431372549  4.448529411764706 10.11029411764706  L 8.654411764705882 14.316176470588236  C 9.018382352941178 14.680147058823529  9.476715686274511 14.862132352941176  10.029411764705882 14.862132352941176  C 10.595588235294118 14.862132352941176  11.080882352941176 14.653186274509803  11.485294117647058 14.23529411764706  C 11.444852941176471 14.194852941176467  11.316789215686276 14.07015931372549  11.101102941176471 13.861213235294118  C 10.885416666666668 13.652267156862745  10.740502450980394 13.507352941176471  10.666360294117649 13.426470588235293  C 10.592218137254903 13.345588235294118  10.491115196078432 13.217524509803923  10.363051470588236 13.042279411764707  C 10.234987745098042 12.867034313725489  10.147365196078432 12.695159313725487  10.100183823529413 12.526654411764707  C 10.053002450980394 12.35814950980392  10.029411764705882 12.17279411764706  10.029411764705882 11.97058823529412  C 10.029411764705882 11.431372549019608  10.218137254901961 10.973039215686272  10.595588235294118 10.595588235294116  C 10.973039215686276 10.218137254901958  11.43137254901961 10.029411764705884  11.970588235294118 10.029411764705884  C 12.17279411764706 10.029411764705884  12.358149509803923 10.053002450980388  12.526654411764705 10.100183823529411  C 12.69515931372549 10.14736519607843  12.86703431372549 10.234987745098037  13.042279411764705 10.363051470588237  C 13.217524509803923 10.491115196078429  13.345588235294118 10.5922181372549  13.426470588235293 10.666360294117649  C 13.507352941176471 10.740502450980388  13.652267156862745 10.885416666666664  13.861213235294118 11.101102941176471  C 14.070159313725492 11.31678921568627  14.194852941176471 11.444852941176471  14.23529411764706 11.485294117647058  Z " stroke-width="0" stroke-dasharray="0" stroke="rgba(255, 255, 255, 0)" fill="none" transform="matrix(1 0 0 1 1166 2266 )" class="stroke" mask="url(#Clip19)" />
    <path d="M 31.301470588235293 20.139705882352942  C 32.43382352941176 21.27205882352941  33 22.647058823529413  33 24.264705882352942  C 33 25.88235294117647  32.427083333333336 27.250612745098042  31.28125 28.369485294117645  L 28.308823529411764 31.321691176470587  C 27.189950980392158 32.44056372549019  25.821691176470587 33  24.204044117647058 33  C 22.57291666666667 33  21.197916666666668 32.427083333333336  20.079044117647058 31.28125  L 15.913602941176471 27.095588235294116  C 14.794730392156865 25.976715686274513  14.23529411764706 24.608455882352942  14.23529411764706 22.990808823529413  C 14.23529411764706 21.332720588235297  14.82843137254902 19.924019607843135  16.014705882352942 18.764705882352942  L 14.23529411764706 16.985294117647058  C 13.075980392156865 18.17156862745098  11.674019607843137 18.764705882352942  10.029411764705882 18.764705882352942  C 8.411764705882351 18.764705882352942  7.036764705882352 18.198529411764707  5.904411764705882 17.066176470588232  L 1.6985294117647058 12.860294117647058  C 0.5661764705882354 11.727941176470587  0 10.352941176470589  0 8.735294117647058  C 0 7.11764705882353  0.5729166666666666 5.749387254901959  1.71875 4.6305147058823515  L 4.6911764705882355 1.678308823529413  C 5.810049019607844 0.5594362745098019  7.178308823529412 0  8.79595588235294 0  C 10.427083333333334 0  11.802083333333336 0.5729166666666646  12.92095588235294 1.7187500000000013  L 17.086397058823533 5.904411764705883  C 18.20526960784314 7.023284313725487  18.764705882352942 8.391544117647058  18.764705882352942 10.009191176470589  C 18.764705882352942 11.667279411764705  18.17156862745098 13.075980392156861  16.985294117647058 14.23529411764706  L 18.764705882352942 16.014705882352942  C 19.92401960784314 14.828431372549018  21.325980392156865 14.235294117647056  22.970588235294116 14.23529411764706  C 24.58823529411765 14.235294117647056  25.963235294117645 14.801470588235293  27.095588235294116 15.933823529411763  L 31.301470588235293 20.139705882352942  Z " stroke-width="0" stroke-dasharray="0" stroke="rgba(255, 255, 255, 0)" fill="none" transform="matrix(1 0 0 1 1166 2266 )" class="stroke" mask="url(#Clip19)" />
  </g>
</svg>