<?xml version="1.0" encoding="utf-8"?>
<svg version="1.1" xmlns:xlink="http://www.w3.org/1999/xlink" width="26px" height="31px" xmlns="http://www.w3.org/2000/svg">
  <defs>
    <pattern id="BGPattern" patternUnits="userSpaceOnUse" alignment="0 0" imageRepeat="None" />
    <mask fill="white" id="Clip12">
      <path d="M 7.222222222222222 9.863636363636365  L 7.222222222222222 14  L 18.77777777777778 14  L 18.77777777777778 9.863636363636365  C 18.77777777777778 8.30776515151515  18.213541666666668 6.979403409090908  17.085069444444446 5.878551136363635  C 15.956597222222223 4.777698863636365  14.59490740740741 4.227272727272727  13 4.227272727272727  C 11.405092592592593 4.227272727272727  10.043402777777777 4.777698863636365  8.914930555555555 5.878551136363635  C 7.786458333333334 6.979403409090908  7.222222222222222 8.30776515151515  7.222222222222222 9.863636363636365  Z M 25.368055555555554 14.707386363636365  C 25.789351851851855 15.118371212121211  26 15.617424242424239  26 16.204545454545453  L 26 28.886363636363637  C 26 29.47348484848485  25.789351851851855 29.972537878787875  25.368055555555554 30.383522727272727  C 24.946759259259263 30.794507575757578  24.435185185185187 31  23.833333333333332 31  L 2.1666666666666665 31  C 1.564814814814815 31  1.053240740740741 30.794507575757578  0.6319444444444444 30.383522727272727  C 0.21064814814814814 29.972537878787875  0 29.47348484848485  0 28.886363636363637  L 0 16.204545454545453  C 0 15.617424242424239  0.21064814814814814 15.118371212121211  0.6319444444444444 14.707386363636365  C 1.053240740740741 14.296401515151516  1.564814814814815 14.090909090909092  2.1666666666666665 14.090909090909092  L 2.888888888888889 14.090909090909092  L 2.888888888888889 9.863636363636365  C 2.888888888888889 7.162878787878785  3.881944444444444 4.84375  5.868055555555555 2.90625  C 7.854166666666666 0.96875  10.231481481481483 0  13 0  C 15.768518518518519 0  18.145833333333332 0.96875  20.131944444444446 2.90625  C 22.118055555555554 4.84375  23.11111111111111 7.162878787878785  23.11111111111111 9.863636363636365  L 23.11111111111111 14.090909090909092  L 23.833333333333332 14.090909090909092  C 24.435185185185187 14.090909090909092  24.946759259259263 14.296401515151516  25.368055555555554 14.707386363636365  Z " fill-rule="evenodd" />
    </mask>
  </defs>
  <g transform="matrix(1 0 0 1 -934 -2394 )">
    <path d="M 7.222222222222222 9.863636363636365  L 7.222222222222222 14  L 18.77777777777778 14  L 18.77777777777778 9.863636363636365  C 18.77777777777778 8.30776515151515  18.213541666666668 6.979403409090908  17.085069444444446 5.878551136363635  C 15.956597222222223 4.777698863636365  14.59490740740741 4.227272727272727  13 4.227272727272727  C 11.405092592592593 4.227272727272727  10.043402777777777 4.777698863636365  8.914930555555555 5.878551136363635  C 7.786458333333334 6.979403409090908  7.222222222222222 8.30776515151515  7.222222222222222 9.863636363636365  Z M 25.368055555555554 14.707386363636365  C 25.789351851851855 15.118371212121211  26 15.617424242424239  26 16.204545454545453  L 26 28.886363636363637  C 26 29.47348484848485  25.789351851851855 29.972537878787875  25.368055555555554 30.383522727272727  C 24.946759259259263 30.794507575757578  24.435185185185187 31  23.833333333333332 31  L 2.1666666666666665 31  C 1.564814814814815 31  1.053240740740741 30.794507575757578  0.6319444444444444 30.383522727272727  C 0.21064814814814814 29.972537878787875  0 29.47348484848485  0 28.886363636363637  L 0 16.204545454545453  C 0 15.617424242424239  0.21064814814814814 15.118371212121211  0.6319444444444444 14.707386363636365  C 1.053240740740741 14.296401515151516  1.564814814814815 14.090909090909092  2.1666666666666665 14.090909090909092  L 2.888888888888889 14.090909090909092  L 2.888888888888889 9.863636363636365  C 2.888888888888889 7.162878787878785  3.881944444444444 4.84375  5.868055555555555 2.90625  C 7.854166666666666 0.96875  10.231481481481483 0  13 0  C 15.768518518518519 0  18.145833333333332 0.96875  20.131944444444446 2.90625  C 22.118055555555554 4.84375  23.11111111111111 7.162878787878785  23.11111111111111 9.863636363636365  L 23.11111111111111 14.090909090909092  L 23.833333333333332 14.090909090909092  C 24.435185185185187 14.090909090909092  24.946759259259263 14.296401515151516  25.368055555555554 14.707386363636365  Z " fill-rule="nonzero" fill="rgba(66, 218, 162, 1)" stroke="none" transform="matrix(1 0 0 1 934 2394 )" class="fill" />
    <path d="M 7.222222222222222 9.863636363636365  L 7.222222222222222 14  L 18.77777777777778 14  L 18.77777777777778 9.863636363636365  C 18.77777777777778 8.30776515151515  18.213541666666668 6.979403409090908  17.085069444444446 5.878551136363635  C 15.956597222222223 4.777698863636365  14.59490740740741 4.227272727272727  13 4.227272727272727  C 11.405092592592593 4.227272727272727  10.043402777777777 4.777698863636365  8.914930555555555 5.878551136363635  C 7.786458333333334 6.979403409090908  7.222222222222222 8.30776515151515  7.222222222222222 9.863636363636365  Z " stroke-width="0" stroke-dasharray="0" stroke="rgba(255, 255, 255, 0)" fill="none" transform="matrix(1 0 0 1 934 2394 )" class="stroke" mask="url(#Clip12)" />
    <path d="M 25.368055555555554 14.707386363636365  C 25.789351851851855 15.118371212121211  26 15.617424242424239  26 16.204545454545453  L 26 28.886363636363637  C 26 29.47348484848485  25.789351851851855 29.972537878787875  25.368055555555554 30.383522727272727  C 24.946759259259263 30.794507575757578  24.435185185185187 31  23.833333333333332 31  L 2.1666666666666665 31  C 1.564814814814815 31  1.053240740740741 30.794507575757578  0.6319444444444444 30.383522727272727  C 0.21064814814814814 29.972537878787875  0 29.47348484848485  0 28.886363636363637  L 0 16.204545454545453  C 0 15.617424242424239  0.21064814814814814 15.118371212121211  0.6319444444444444 14.707386363636365  C 1.053240740740741 14.296401515151516  1.564814814814815 14.090909090909092  2.1666666666666665 14.090909090909092  L 2.888888888888889 14.090909090909092  L 2.888888888888889 9.863636363636365  C 2.888888888888889 7.162878787878785  3.881944444444444 4.84375  5.868055555555555 2.90625  C 7.854166666666666 0.96875  10.231481481481483 0  13 0  C 15.768518518518519 0  18.145833333333332 0.96875  20.131944444444446 2.90625  C 22.118055555555554 4.84375  23.11111111111111 7.162878787878785  23.11111111111111 9.863636363636365  L 23.11111111111111 14.090909090909092  L 23.833333333333332 14.090909090909092  C 24.435185185185187 14.090909090909092  24.946759259259263 14.296401515151516  25.368055555555554 14.707386363636365  Z " stroke-width="0" stroke-dasharray="0" stroke="rgba(255, 255, 255, 0)" fill="none" transform="matrix(1 0 0 1 934 2394 )" class="stroke" mask="url(#Clip12)" />
  </g>
</svg>