<?xml version="1.0" encoding="utf-8"?>
<svg version="1.1" xmlns:xlink="http://www.w3.org/1999/xlink" width="33px" height="33px" xmlns="http://www.w3.org/2000/svg">
  <defs>
    <pattern id="BGPattern" patternUnits="userSpaceOnUse" alignment="0 0" imageRepeat="None" />
    <mask fill="white" id="Clip17">
      <path d="M 7.682044002838892 25.3125  C 8.556422995031937 26.187499999999996  8.99361249112846 27.25  8.99361249112846 28.5  C 8.99361249112846 29.75  8.556422995031937 30.812500000000004  7.682044002838892 31.6875  C 6.807665010645848 32.5625  5.745919091554295 33  4.49680624556423 33  C 3.2476933995741666 33  2.185947480482612 32.5625  1.311568488289567 31.6875  C 0.4371894960965223 30.812500000000004  0 29.75  0 28.5  C 0 27.25  0.4371894960965223 26.187499999999996  1.311568488289567 25.3125  C 2.185947480482612 24.437500000000004  3.2476933995741666 24  4.49680624556423 24  C 5.745919091554295 24  6.807665010645848 24.437500000000004  7.682044002838892 25.3125  Z M 19.099716110716823 24.2109375  C 20.153655074520938 26.4921875  20.782114975159686 28.8828125  20.985095812633073 31.3828125  C 21.016323633782825 31.820312500000004  20.88360539389638 32.1953125  20.586941092973742 32.5078125  C 20.30589070262598 32.8359375  19.938963804116398 33  19.486160397444998 33  L 16.324343506032648 33  C 15.933995741660752 33  15.598296664300923 32.87109375  15.31724627395316 32.61328125  C 15.036195883605393 32.35546875  14.880056777856637 32.03125  14.848828956706885 31.640625  C 14.505322924059618 28.0625  13.064939673527325 25.003906250000004  10.527679205110006 22.464843749999996  C 7.990418736692689 19.92578125  4.933995741660753 18.484374999999996  1.3584102200141945 18.140625000000004  C 0.9680624556422995 18.109375  0.6440738112136267 17.953124999999996  0.38644428672817605 17.671875  C 0.12881476224272534 17.390625  0 17.0546875  0 16.664062499999996  L 0 13.499999999999998  C 0 13.046874999999996  0.16394606103619588 12.679687499999998  0.4918381831085876 12.3984375  C 0.7572746628814764 12.1328125  1.092973740241306 12  1.4989354151880767 12  L 1.616039744499645 12  C 4.114265436479774 12.203124999999998  6.50319375443577 12.832031249999998  8.782824698367637 13.886718749999998  C 11.062455642299504 14.94140625  13.08445706174592 16.359375  14.848828956706885 18.140625000000004  C 16.628814762242722 19.906249999999996  18.0457771469127 21.929687499999996  19.099716110716823 24.2109375  Z M 30.16607523066004 19.67578125  C 31.83676366217176 23.417968749999996  32.773598296664304 27.3359375  32.97657913413769 31.4296875  C 33.00780695528744 31.8515625  32.867281760113556 32.21875  32.555003548616035 32.53125  C 32.27395315826828 32.84375  31.914833215046134 33  31.477643718949608 33  L 28.128459900638752 33  C 27.72249822569198 33  27.375088715400995 32.86328125  27.08623136976579 32.58984375  C 26.79737402413059 32.31640625  26.64513839602555 31.984375  26.629524485450673 31.59375  C 26.442157558552164 28.234375000000004  25.65365507452094 25.04296875  24.26401703335699 22.01953125  C 22.874378992193048 18.99609375  21.067068843151173 16.37109375  18.84208658623137 14.144531249999998  C 16.61710432931157 11.917968750000002  13.993967352732433 10.109374999999998  10.972675656493967 8.718749999999998  C 7.9513839602555 7.328124999999996  4.762242725337119 6.531249999999995  1.405251951738822 6.328125  C 1.014904187366927 6.3125  0.6831085876508162 6.160156249999999  0.4098651525904897 5.871093749999998  C 0.13662171753016322 5.582031249999997  0 5.242187499999995  0 4.851562499999998  L 0 1.4999999999999987  C 0 1.0624999999999973  0.15613910574875797 0.7031250000000017  0.46841731724627395 0.421875000000001  C 0.7494677075940384 0.14062500000000033  1.092973740241306 0  1.4989354151880767 0  L 1.5691980127750178 0  C 5.660042583392477 0.20312499999999478  9.575230660042585 1.1406249999999958  13.314762242725337 2.812499999999999  C 17.05429382540809 4.484374999999999  20.376153300212916 6.781249999999998  23.280340667139814 9.703125000000002  C 26.200141944641594 12.609375  28.495386799148335 15.933593749999998  30.16607523066004 19.67578125  Z " fill-rule="evenodd" />
    </mask>
  </defs>
  <g transform="matrix(1 0 0 1 -649 -2362 )">
    <path d="M 7.682044002838892 25.3125  C 8.556422995031937 26.187499999999996  8.99361249112846 27.25  8.99361249112846 28.5  C 8.99361249112846 29.75  8.556422995031937 30.812500000000004  7.682044002838892 31.6875  C 6.807665010645848 32.5625  5.745919091554295 33  4.49680624556423 33  C 3.2476933995741666 33  2.185947480482612 32.5625  1.311568488289567 31.6875  C 0.4371894960965223 30.812500000000004  0 29.75  0 28.5  C 0 27.25  0.4371894960965223 26.187499999999996  1.311568488289567 25.3125  C 2.185947480482612 24.437500000000004  3.2476933995741666 24  4.49680624556423 24  C 5.745919091554295 24  6.807665010645848 24.437500000000004  7.682044002838892 25.3125  Z M 19.099716110716823 24.2109375  C 20.153655074520938 26.4921875  20.782114975159686 28.8828125  20.985095812633073 31.3828125  C 21.016323633782825 31.820312500000004  20.88360539389638 32.1953125  20.586941092973742 32.5078125  C 20.30589070262598 32.8359375  19.938963804116398 33  19.486160397444998 33  L 16.324343506032648 33  C 15.933995741660752 33  15.598296664300923 32.87109375  15.31724627395316 32.61328125  C 15.036195883605393 32.35546875  14.880056777856637 32.03125  14.848828956706885 31.640625  C 14.505322924059618 28.0625  13.064939673527325 25.003906250000004  10.527679205110006 22.464843749999996  C 7.990418736692689 19.92578125  4.933995741660753 18.484374999999996  1.3584102200141945 18.140625000000004  C 0.9680624556422995 18.109375  0.6440738112136267 17.953124999999996  0.38644428672817605 17.671875  C 0.12881476224272534 17.390625  0 17.0546875  0 16.664062499999996  L 0 13.499999999999998  C 0 13.046874999999996  0.16394606103619588 12.679687499999998  0.4918381831085876 12.3984375  C 0.7572746628814764 12.1328125  1.092973740241306 12  1.4989354151880767 12  L 1.616039744499645 12  C 4.114265436479774 12.203124999999998  6.50319375443577 12.832031249999998  8.782824698367637 13.886718749999998  C 11.062455642299504 14.94140625  13.08445706174592 16.359375  14.848828956706885 18.140625000000004  C 16.628814762242722 19.906249999999996  18.0457771469127 21.929687499999996  19.099716110716823 24.2109375  Z M 30.16607523066004 19.67578125  C 31.83676366217176 23.417968749999996  32.773598296664304 27.3359375  32.97657913413769 31.4296875  C 33.00780695528744 31.8515625  32.867281760113556 32.21875  32.555003548616035 32.53125  C 32.27395315826828 32.84375  31.914833215046134 33  31.477643718949608 33  L 28.128459900638752 33  C 27.72249822569198 33  27.375088715400995 32.86328125  27.08623136976579 32.58984375  C 26.79737402413059 32.31640625  26.64513839602555 31.984375  26.629524485450673 31.59375  C 26.442157558552164 28.234375000000004  25.65365507452094 25.04296875  24.26401703335699 22.01953125  C 22.874378992193048 18.99609375  21.067068843151173 16.37109375  18.84208658623137 14.144531249999998  C 16.61710432931157 11.917968750000002  13.993967352732433 10.109374999999998  10.972675656493967 8.718749999999998  C 7.9513839602555 7.328124999999996  4.762242725337119 6.531249999999995  1.405251951738822 6.328125  C 1.014904187366927 6.3125  0.6831085876508162 6.160156249999999  0.4098651525904897 5.871093749999998  C 0.13662171753016322 5.582031249999997  0 5.242187499999995  0 4.851562499999998  L 0 1.4999999999999987  C 0 1.0624999999999973  0.15613910574875797 0.7031250000000017  0.46841731724627395 0.421875000000001  C 0.7494677075940384 0.14062500000000033  1.092973740241306 0  1.4989354151880767 0  L 1.5691980127750178 0  C 5.660042583392477 0.20312499999999478  9.575230660042585 1.1406249999999958  13.314762242725337 2.812499999999999  C 17.05429382540809 4.484374999999999  20.376153300212916 6.781249999999998  23.280340667139814 9.703125000000002  C 26.200141944641594 12.609375  28.495386799148335 15.933593749999998  30.16607523066004 19.67578125  Z " fill-rule="nonzero" fill="rgba(66, 218, 162, 1)" stroke="none" transform="matrix(1 0 0 1 649 2362 )" class="fill" />
    <path d="M 7.682044002838892 25.3125  C 8.556422995031937 26.187499999999996  8.99361249112846 27.25  8.99361249112846 28.5  C 8.99361249112846 29.75  8.556422995031937 30.812500000000004  7.682044002838892 31.6875  C 6.807665010645848 32.5625  5.745919091554295 33  4.49680624556423 33  C 3.2476933995741666 33  2.185947480482612 32.5625  1.311568488289567 31.6875  C 0.4371894960965223 30.812500000000004  0 29.75  0 28.5  C 0 27.25  0.4371894960965223 26.187499999999996  1.311568488289567 25.3125  C 2.185947480482612 24.437500000000004  3.2476933995741666 24  4.49680624556423 24  C 5.745919091554295 24  6.807665010645848 24.437500000000004  7.682044002838892 25.3125  Z " stroke-width="0" stroke-dasharray="0" stroke="rgba(255, 255, 255, 0)" fill="none" transform="matrix(1 0 0 1 649 2362 )" class="stroke" mask="url(#Clip17)" />
    <path d="M 19.099716110716823 24.2109375  C 20.153655074520938 26.4921875  20.782114975159686 28.8828125  20.985095812633073 31.3828125  C 21.016323633782825 31.820312500000004  20.88360539389638 32.1953125  20.586941092973742 32.5078125  C 20.30589070262598 32.8359375  19.938963804116398 33  19.486160397444998 33  L 16.324343506032648 33  C 15.933995741660752 33  15.598296664300923 32.87109375  15.31724627395316 32.61328125  C 15.036195883605393 32.35546875  14.880056777856637 32.03125  14.848828956706885 31.640625  C 14.505322924059618 28.0625  13.064939673527325 25.003906250000004  10.527679205110006 22.464843749999996  C 7.990418736692689 19.92578125  4.933995741660753 18.484374999999996  1.3584102200141945 18.140625000000004  C 0.9680624556422995 18.109375  0.6440738112136267 17.953124999999996  0.38644428672817605 17.671875  C 0.12881476224272534 17.390625  0 17.0546875  0 16.664062499999996  L 0 13.499999999999998  C 0 13.046874999999996  0.16394606103619588 12.679687499999998  0.4918381831085876 12.3984375  C 0.7572746628814764 12.1328125  1.092973740241306 12  1.4989354151880767 12  L 1.616039744499645 12  C 4.114265436479774 12.203124999999998  6.50319375443577 12.832031249999998  8.782824698367637 13.886718749999998  C 11.062455642299504 14.94140625  13.08445706174592 16.359375  14.848828956706885 18.140625000000004  C 16.628814762242722 19.906249999999996  18.0457771469127 21.929687499999996  19.099716110716823 24.2109375  Z " stroke-width="0" stroke-dasharray="0" stroke="rgba(255, 255, 255, 0)" fill="none" transform="matrix(1 0 0 1 649 2362 )" class="stroke" mask="url(#Clip17)" />
    <path d="M 30.16607523066004 19.67578125  C 31.83676366217176 23.417968749999996  32.773598296664304 27.3359375  32.97657913413769 31.4296875  C 33.00780695528744 31.8515625  32.867281760113556 32.21875  32.555003548616035 32.53125  C 32.27395315826828 32.84375  31.914833215046134 33  31.477643718949608 33  L 28.128459900638752 33  C 27.72249822569198 33  27.375088715400995 32.86328125  27.08623136976579 32.58984375  C 26.79737402413059 32.31640625  26.64513839602555 31.984375  26.629524485450673 31.59375  C 26.442157558552164 28.234375000000004  25.65365507452094 25.04296875  24.26401703335699 22.01953125  C 22.874378992193048 18.99609375  21.067068843151173 16.37109375  18.84208658623137 14.144531249999998  C 16.61710432931157 11.917968750000002  13.993967352732433 10.109374999999998  10.972675656493967 8.718749999999998  C 7.9513839602555 7.328124999999996  4.762242725337119 6.531249999999995  1.405251951738822 6.328125  C 1.014904187366927 6.3125  0.6831085876508162 6.160156249999999  0.4098651525904897 5.871093749999998  C 0.13662171753016322 5.582031249999997  0 5.242187499999995  0 4.851562499999998  L 0 1.4999999999999987  C 0 1.0624999999999973  0.15613910574875797 0.7031250000000017  0.46841731724627395 0.421875000000001  C 0.7494677075940384 0.14062500000000033  1.092973740241306 0  1.4989354151880767 0  L 1.5691980127750178 0  C 5.660042583392477 0.20312499999999478  9.575230660042585 1.1406249999999958  13.314762242725337 2.812499999999999  C 17.05429382540809 4.484374999999999  20.376153300212916 6.781249999999998  23.280340667139814 9.703125000000002  C 26.200141944641594 12.609375  28.495386799148335 15.933593749999998  30.16607523066004 19.67578125  Z " stroke-width="0" stroke-dasharray="0" stroke="rgba(255, 255, 255, 0)" fill="none" transform="matrix(1 0 0 1 649 2362 )" class="stroke" mask="url(#Clip17)" />
  </g>
</svg>