<?xml version="1.0" encoding="utf-8"?>
<svg version="1.1" xmlns:xlink="http://www.w3.org/1999/xlink" width="33px" height="33px" xmlns="http://www.w3.org/2000/svg">
  <defs>
    <pattern id="BGPattern" patternUnits="userSpaceOnUse" alignment="0 0" imageRepeat="None" />
    <mask fill="white" id="Clip15">
      <path d="M 20.388671875 20.388671875000004  C 21.462890625 19.314453124999996  22 18.018229166666664  22 16.5  C 22 14.98177083333333  21.462890625 13.685546874999998  20.388671875 12.611328125000002  C 19.314453125 11.537109375  18.018229166666668 11.000000000000002  16.5 11.000000000000002  C 14.981770833333334 11.000000000000002  13.685546875 11.537109375  12.611328125 12.611328125000002  C 11.537109375 13.685546874999998  11 14.98177083333333  11 16.5  C 11 18.018229166666664  11.537109375 19.314453124999996  12.611328125 20.388671875000004  C 13.685546875 21.462890625  14.981770833333334 22.000000000000004  16.5 22.000000000000004  C 18.018229166666668 22.000000000000004  19.314453125 21.462890625  20.388671875 20.388671875000004  Z M 32.828125 13.653320312499998  C 32.94270833333333 13.803710937500002  33 13.972005208333332  33 14.158203125000002  L 33 18.927734374999996  C 33 19.099609375000004  32.94270833333333 19.264322916666668  32.828125 19.421875000000004  C 32.71354166666667 19.57942708333333  32.5703125 19.672526041666664  32.3984375 19.701171874999996  L 28.423828125 20.302734375  C 28.151692708333336 21.076171875  27.87239583333334 21.727864583333332  27.5859375 22.257812500000004  C 28.087239583333336 22.973958333333336  28.853515625 23.96223958333333  29.884765625 25.22265625  C 30.027994791666668 25.39453125  30.099609375 25.573567708333332  30.099609375 25.759765625  C 30.099609375 25.945963541666668  30.03515625 26.110677083333332  29.90625 26.25390625  C 29.51953125 26.783854166666668  28.810546875 27.557291666666668  27.779296875 28.57421875  C 26.748046875 29.591145833333332  26.074869791666668 30.099609375  25.759765625 30.099609375  C 25.587890625 30.099609375  25.401692708333336 30.03515625  25.201171875 29.90625  L 22.236328125 27.5859375  C 21.606119791666668 27.915364583333332  20.954427083333336 28.1875  20.28125 28.40234375  C 20.052083333333336 30.350260416666668  19.844401041666668 31.682291666666668  19.658203125 32.3984375  C 19.557942708333336 32.79947916666667  19.300130208333336 33  18.884765625 33  L 14.115234375 33  C 13.914713541666668 33  13.7392578125 32.93912760416667  13.5888671875 32.8173828125  C 13.4384765625 32.695638020833336  13.35611979166667 32.54166666666667  13.341796875 32.35546875  L 12.740234375 28.40234375  C 12.038411458333334 28.173177083333332  11.393880208333334 27.908203125  10.806640625 27.607421875  L 7.77734375 29.90625  C 7.634114583333334 30.03515625  7.455078125 30.099609375  7.240234375 30.099609375  C 7.039713541666667 30.099609375  6.860677083333334 30.020833333333332  6.703125 29.86328125  C 4.8984375 28.23046875  3.716796875 27.02734375  3.158203125 26.25390625  C 3.0579427083333335 26.110677083333332  3.0078125 25.945963541666668  3.0078125 25.759765625  C 3.0078125 25.587890625  3.0651041666666674 25.423177083333332  3.1796875 25.265625  C 3.39453125 24.96484375  3.759765625 24.488606770833336  4.275390625 23.836914062500004  C 4.791015625 23.185221354166664  5.177734375 22.68033854166666  5.435546875 22.322265625000004  C 5.048828125 21.606119791666664  4.755208333333334 20.897135416666664  4.5546875 20.195312500000004  L 0.623046875 19.615234375000004  C 0.43684895833333337 19.586588541666668  0.28645833333333337 19.4970703125  0.171875 19.346679687499996  C 0.057291666666666664 19.196289062500004  0 19.027994791666664  0 18.841796875000004  L 0 14.072265624999998  C 0 13.900390625000002  0.057291666666666664 13.735677083333332  0.171875 13.578125000000002  C 0.28645833333333337 13.420572916666668  0.4225260416666667 13.327473958333332  0.580078125 13.298828124999998  L 4.576171875 12.697265625  C 4.776692708333334 12.038411458333332  5.055989583333333 11.379557291666666  5.4140625 10.720703124999998  C 4.841145833333334 9.904296875000002  4.074869791666667 8.916015624999998  3.115234375 7.755859374999999  C 2.9720052083333335 7.583984375000001  2.900390625 7.412109375  2.900390625 7.240234374999999  C 2.900390625 7.097005208333332  2.96484375 6.9322916666666625  3.09375 6.746093750000001  C 3.4661458333333335 6.230468750000001  4.171549479166667 5.460611979166663  5.2099609375 4.436523437499999  C 6.248372395833334 3.4124348958333304  6.925130208333334 2.900390625  7.240234375 2.900390625  C 7.426432291666667 2.900390625  7.612630208333335 2.9720052083333317  7.798828125 3.1152343749999987  L 10.763671875 5.4140625  C 11.393880208333334 5.084635416666664  12.045572916666668 4.812500000000001  12.71875 4.597656249999999  C 12.947916666666668 2.6497395833333317  13.155598958333334 1.3177083333333304  13.341796875 0.6015624999999988  C 13.442057291666668 0.2005208333333317  13.699869791666668 0  14.115234375 0  L 18.884765625 0  C 19.085286458333336 0  19.2607421875 0.060872395833330484  19.4111328125 0.18261718749999878  C 19.5615234375 0.3043619791666634  19.643880208333332 0.4583333333333317  19.658203125 0.64453125  L 20.259765625 4.597656249999999  C 20.961588541666668 4.826822916666664  21.606119791666668 5.091796875  22.193359375 5.392578125000001  L 25.244140625 3.09375  C 25.373046875 2.96484375  25.544921875 2.900390625  25.759765625 2.900390625  C 25.945963541666668 2.900390625  26.125 2.9720052083333317  26.296875 3.1152343749999987  C 28.14453125 4.819661458333333  29.326171875 6.037109375000001  29.841796875 6.767578125  C 29.942057291666668 6.882161458333333  29.9921875 7.039713541666663  29.9921875 7.240234374999999  C 29.9921875 7.412109375  29.93489583333334 7.5768229166666625  29.8203125 7.734375  C 29.60546875 8.035156250000002  29.240234375 8.511393229166663  28.724609375 9.163085937500002  C 28.208984375 9.814778645833332  27.822265625 10.319661458333332  27.564453125 10.677734375000002  C 27.93684895833334 11.393880208333332  28.23046875 12.095703124999998  28.4453125 12.783203124999998  L 32.376953125 13.384765625000002  C 32.563151041666664 13.413411458333332  32.71354166666667 13.502929687499996  32.828125 13.653320312499998  Z " fill-rule="evenodd" />
    </mask>
  </defs>
  <g transform="matrix(1 0 0 1 -1343 -2378 )">
    <path d="M 20.388671875 20.388671875000004  C 21.462890625 19.314453124999996  22 18.018229166666664  22 16.5  C 22 14.98177083333333  21.462890625 13.685546874999998  20.388671875 12.611328125000002  C 19.314453125 11.537109375  18.018229166666668 11.000000000000002  16.5 11.000000000000002  C 14.981770833333334 11.000000000000002  13.685546875 11.537109375  12.611328125 12.611328125000002  C 11.537109375 13.685546874999998  11 14.98177083333333  11 16.5  C 11 18.018229166666664  11.537109375 19.314453124999996  12.611328125 20.388671875000004  C 13.685546875 21.462890625  14.981770833333334 22.000000000000004  16.5 22.000000000000004  C 18.018229166666668 22.000000000000004  19.314453125 21.462890625  20.388671875 20.388671875000004  Z M 32.828125 13.653320312499998  C 32.94270833333333 13.803710937500002  33 13.972005208333332  33 14.158203125000002  L 33 18.927734374999996  C 33 19.099609375000004  32.94270833333333 19.264322916666668  32.828125 19.421875000000004  C 32.71354166666667 19.57942708333333  32.5703125 19.672526041666664  32.3984375 19.701171874999996  L 28.423828125 20.302734375  C 28.151692708333336 21.076171875  27.87239583333334 21.727864583333332  27.5859375 22.257812500000004  C 28.087239583333336 22.973958333333336  28.853515625 23.96223958333333  29.884765625 25.22265625  C 30.027994791666668 25.39453125  30.099609375 25.573567708333332  30.099609375 25.759765625  C 30.099609375 25.945963541666668  30.03515625 26.110677083333332  29.90625 26.25390625  C 29.51953125 26.783854166666668  28.810546875 27.557291666666668  27.779296875 28.57421875  C 26.748046875 29.591145833333332  26.074869791666668 30.099609375  25.759765625 30.099609375  C 25.587890625 30.099609375  25.401692708333336 30.03515625  25.201171875 29.90625  L 22.236328125 27.5859375  C 21.606119791666668 27.915364583333332  20.954427083333336 28.1875  20.28125 28.40234375  C 20.052083333333336 30.350260416666668  19.844401041666668 31.682291666666668  19.658203125 32.3984375  C 19.557942708333336 32.79947916666667  19.300130208333336 33  18.884765625 33  L 14.115234375 33  C 13.914713541666668 33  13.7392578125 32.93912760416667  13.5888671875 32.8173828125  C 13.4384765625 32.695638020833336  13.35611979166667 32.54166666666667  13.341796875 32.35546875  L 12.740234375 28.40234375  C 12.038411458333334 28.173177083333332  11.393880208333334 27.908203125  10.806640625 27.607421875  L 7.77734375 29.90625  C 7.634114583333334 30.03515625  7.455078125 30.099609375  7.240234375 30.099609375  C 7.039713541666667 30.099609375  6.860677083333334 30.020833333333332  6.703125 29.86328125  C 4.8984375 28.23046875  3.716796875 27.02734375  3.158203125 26.25390625  C 3.0579427083333335 26.110677083333332  3.0078125 25.945963541666668  3.0078125 25.759765625  C 3.0078125 25.587890625  3.0651041666666674 25.423177083333332  3.1796875 25.265625  C 3.39453125 24.96484375  3.759765625 24.488606770833336  4.275390625 23.836914062500004  C 4.791015625 23.185221354166664  5.177734375 22.68033854166666  5.435546875 22.322265625000004  C 5.048828125 21.606119791666664  4.755208333333334 20.897135416666664  4.5546875 20.195312500000004  L 0.623046875 19.615234375000004  C 0.43684895833333337 19.586588541666668  0.28645833333333337 19.4970703125  0.171875 19.346679687499996  C 0.057291666666666664 19.196289062500004  0 19.027994791666664  0 18.841796875000004  L 0 14.072265624999998  C 0 13.900390625000002  0.057291666666666664 13.735677083333332  0.171875 13.578125000000002  C 0.28645833333333337 13.420572916666668  0.4225260416666667 13.327473958333332  0.580078125 13.298828124999998  L 4.576171875 12.697265625  C 4.776692708333334 12.038411458333332  5.055989583333333 11.379557291666666  5.4140625 10.720703124999998  C 4.841145833333334 9.904296875000002  4.074869791666667 8.916015624999998  3.115234375 7.755859374999999  C 2.9720052083333335 7.583984375000001  2.900390625 7.412109375  2.900390625 7.240234374999999  C 2.900390625 7.097005208333332  2.96484375 6.9322916666666625  3.09375 6.746093750000001  C 3.4661458333333335 6.230468750000001  4.171549479166667 5.460611979166663  5.2099609375 4.436523437499999  C 6.248372395833334 3.4124348958333304  6.925130208333334 2.900390625  7.240234375 2.900390625  C 7.426432291666667 2.900390625  7.612630208333335 2.9720052083333317  7.798828125 3.1152343749999987  L 10.763671875 5.4140625  C 11.393880208333334 5.084635416666664  12.045572916666668 4.812500000000001  12.71875 4.597656249999999  C 12.947916666666668 2.6497395833333317  13.155598958333334 1.3177083333333304  13.341796875 0.6015624999999988  C 13.442057291666668 0.2005208333333317  13.699869791666668 0  14.115234375 0  L 18.884765625 0  C 19.085286458333336 0  19.2607421875 0.060872395833330484  19.4111328125 0.18261718749999878  C 19.5615234375 0.3043619791666634  19.643880208333332 0.4583333333333317  19.658203125 0.64453125  L 20.259765625 4.597656249999999  C 20.961588541666668 4.826822916666664  21.606119791666668 5.091796875  22.193359375 5.392578125000001  L 25.244140625 3.09375  C 25.373046875 2.96484375  25.544921875 2.900390625  25.759765625 2.900390625  C 25.945963541666668 2.900390625  26.125 2.9720052083333317  26.296875 3.1152343749999987  C 28.14453125 4.819661458333333  29.326171875 6.037109375000001  29.841796875 6.767578125  C 29.942057291666668 6.882161458333333  29.9921875 7.039713541666663  29.9921875 7.240234374999999  C 29.9921875 7.412109375  29.93489583333334 7.5768229166666625  29.8203125 7.734375  C 29.60546875 8.035156250000002  29.240234375 8.511393229166663  28.724609375 9.163085937500002  C 28.208984375 9.814778645833332  27.822265625 10.319661458333332  27.564453125 10.677734375000002  C 27.93684895833334 11.393880208333332  28.23046875 12.095703124999998  28.4453125 12.783203124999998  L 32.376953125 13.384765625000002  C 32.563151041666664 13.413411458333332  32.71354166666667 13.502929687499996  32.828125 13.653320312499998  Z " fill-rule="nonzero" fill="rgba(66, 218, 162, 1)" stroke="none" transform="matrix(1 0 0 1 1343 2378 )" class="fill" />
    <path d="M 20.388671875 20.388671875000004  C 21.462890625 19.314453124999996  22 18.018229166666664  22 16.5  C 22 14.98177083333333  21.462890625 13.685546874999998  20.388671875 12.611328125000002  C 19.314453125 11.537109375  18.018229166666668 11.000000000000002  16.5 11.000000000000002  C 14.981770833333334 11.000000000000002  13.685546875 11.537109375  12.611328125 12.611328125000002  C 11.537109375 13.685546874999998  11 14.98177083333333  11 16.5  C 11 18.018229166666664  11.537109375 19.314453124999996  12.611328125 20.388671875000004  C 13.685546875 21.462890625  14.981770833333334 22.000000000000004  16.5 22.000000000000004  C 18.018229166666668 22.000000000000004  19.314453125 21.462890625  20.388671875 20.388671875000004  Z " stroke-width="0" stroke-dasharray="0" stroke="rgba(255, 255, 255, 0)" fill="none" transform="matrix(1 0 0 1 1343 2378 )" class="stroke" mask="url(#Clip15)" />
    <path d="M 32.828125 13.653320312499998  C 32.94270833333333 13.803710937500002  33 13.972005208333332  33 14.158203125000002  L 33 18.927734374999996  C 33 19.099609375000004  32.94270833333333 19.264322916666668  32.828125 19.421875000000004  C 32.71354166666667 19.57942708333333  32.5703125 19.672526041666664  32.3984375 19.701171874999996  L 28.423828125 20.302734375  C 28.151692708333336 21.076171875  27.87239583333334 21.727864583333332  27.5859375 22.257812500000004  C 28.087239583333336 22.973958333333336  28.853515625 23.96223958333333  29.884765625 25.22265625  C 30.027994791666668 25.39453125  30.099609375 25.573567708333332  30.099609375 25.759765625  C 30.099609375 25.945963541666668  30.03515625 26.110677083333332  29.90625 26.25390625  C 29.51953125 26.783854166666668  28.810546875 27.557291666666668  27.779296875 28.57421875  C 26.748046875 29.591145833333332  26.074869791666668 30.099609375  25.759765625 30.099609375  C 25.587890625 30.099609375  25.401692708333336 30.03515625  25.201171875 29.90625  L 22.236328125 27.5859375  C 21.606119791666668 27.915364583333332  20.954427083333336 28.1875  20.28125 28.40234375  C 20.052083333333336 30.350260416666668  19.844401041666668 31.682291666666668  19.658203125 32.3984375  C 19.557942708333336 32.79947916666667  19.300130208333336 33  18.884765625 33  L 14.115234375 33  C 13.914713541666668 33  13.7392578125 32.93912760416667  13.5888671875 32.8173828125  C 13.4384765625 32.695638020833336  13.35611979166667 32.54166666666667  13.341796875 32.35546875  L 12.740234375 28.40234375  C 12.038411458333334 28.173177083333332  11.393880208333334 27.908203125  10.806640625 27.607421875  L 7.77734375 29.90625  C 7.634114583333334 30.03515625  7.455078125 30.099609375  7.240234375 30.099609375  C 7.039713541666667 30.099609375  6.860677083333334 30.020833333333332  6.703125 29.86328125  C 4.8984375 28.23046875  3.716796875 27.02734375  3.158203125 26.25390625  C 3.0579427083333335 26.110677083333332  3.0078125 25.945963541666668  3.0078125 25.759765625  C 3.0078125 25.587890625  3.0651041666666674 25.423177083333332  3.1796875 25.265625  C 3.39453125 24.96484375  3.759765625 24.488606770833336  4.275390625 23.836914062500004  C 4.791015625 23.185221354166664  5.177734375 22.68033854166666  5.435546875 22.322265625000004  C 5.048828125 21.606119791666664  4.755208333333334 20.897135416666664  4.5546875 20.195312500000004  L 0.623046875 19.615234375000004  C 0.43684895833333337 19.586588541666668  0.28645833333333337 19.4970703125  0.171875 19.346679687499996  C 0.057291666666666664 19.196289062500004  0 19.027994791666664  0 18.841796875000004  L 0 14.072265624999998  C 0 13.900390625000002  0.057291666666666664 13.735677083333332  0.171875 13.578125000000002  C 0.28645833333333337 13.420572916666668  0.4225260416666667 13.327473958333332  0.580078125 13.298828124999998  L 4.576171875 12.697265625  C 4.776692708333334 12.038411458333332  5.055989583333333 11.379557291666666  5.4140625 10.720703124999998  C 4.841145833333334 9.904296875000002  4.074869791666667 8.916015624999998  3.115234375 7.755859374999999  C 2.9720052083333335 7.583984375000001  2.900390625 7.412109375  2.900390625 7.240234374999999  C 2.900390625 7.097005208333332  2.96484375 6.9322916666666625  3.09375 6.746093750000001  C 3.4661458333333335 6.230468750000001  4.171549479166667 5.460611979166663  5.2099609375 4.436523437499999  C 6.248372395833334 3.4124348958333304  6.925130208333334 2.900390625  7.240234375 2.900390625  C 7.426432291666667 2.900390625  7.612630208333335 2.9720052083333317  7.798828125 3.1152343749999987  L 10.763671875 5.4140625  C 11.393880208333334 5.084635416666664  12.045572916666668 4.812500000000001  12.71875 4.597656249999999  C 12.947916666666668 2.6497395833333317  13.155598958333334 1.3177083333333304  13.341796875 0.6015624999999988  C 13.442057291666668 0.2005208333333317  13.699869791666668 0  14.115234375 0  L 18.884765625 0  C 19.085286458333336 0  19.2607421875 0.060872395833330484  19.4111328125 0.18261718749999878  C 19.5615234375 0.3043619791666634  19.643880208333332 0.4583333333333317  19.658203125 0.64453125  L 20.259765625 4.597656249999999  C 20.961588541666668 4.826822916666664  21.606119791666668 5.091796875  22.193359375 5.392578125000001  L 25.244140625 3.09375  C 25.373046875 2.96484375  25.544921875 2.900390625  25.759765625 2.900390625  C 25.945963541666668 2.900390625  26.125 2.9720052083333317  26.296875 3.1152343749999987  C 28.14453125 4.819661458333333  29.326171875 6.037109375000001  29.841796875 6.767578125  C 29.942057291666668 6.882161458333333  29.9921875 7.039713541666663  29.9921875 7.240234374999999  C 29.9921875 7.412109375  29.93489583333334 7.5768229166666625  29.8203125 7.734375  C 29.60546875 8.035156250000002  29.240234375 8.511393229166663  28.724609375 9.163085937500002  C 28.208984375 9.814778645833332  27.822265625 10.319661458333332  27.564453125 10.677734375000002  C 27.93684895833334 11.393880208333332  28.23046875 12.095703124999998  28.4453125 12.783203124999998  L 32.376953125 13.384765625000002  C 32.563151041666664 13.413411458333332  32.71354166666667 13.502929687499996  32.828125 13.653320312499998  Z " stroke-width="0" stroke-dasharray="0" stroke="rgba(255, 255, 255, 0)" fill="none" transform="matrix(1 0 0 1 1343 2378 )" class="stroke" mask="url(#Clip15)" />
  </g>
</svg>